<?xml version="1.0" standalone="no"?>
<!DOCTYPE svg PUBLIC "-//W3C//DTD SVG 1.1//EN" "http://www.w3.org/Graphics/SVG/1.1/DTD/svg11.dtd" >
<svg xmlns="http://www.w3.org/2000/svg">
<metadata></metadata>
<defs>
<font id="MontalbanRegular" horiz-adv-x="2050" >
<font-face units-per-em="2048" ascent="1638" descent="-410" />
<missing-glyph horiz-adv-x="1000" />
<glyph horiz-adv-x="0" />
<glyph horiz-adv-x="2048" />
<glyph unicode="&#xd;" horiz-adv-x="508" />
<glyph unicode=" "  horiz-adv-x="1000" />
<glyph unicode="&#x09;" horiz-adv-x="1000" />
<glyph unicode="&#xa0;" horiz-adv-x="1000" />
<glyph unicode="!" horiz-adv-x="700" d="M0 0v350h450v-350h-450zM0 550v900h450v-900h-450z" />
<glyph unicode="&#x22;" horiz-adv-x="1300" d="M0 1100v350h450v-350q0 -300 -350 -300v300h-100zM600 1100v350h450v-350q0 -300 -350 -300v300h-100z" />
<glyph unicode="#" horiz-adv-x="1850" d="M0 300v350h200v150h-200v350h200v200h450v-200h300v200h450v-200h200v-350h-200v-150h200v-350h-200v-200h-450v200h-300v-200h-450v200h-200zM650 650h300v150h-300v-150z" />
<glyph unicode="$" horiz-adv-x="1900" d="M0 450h1050q150 0 150 50v1q0 49 -150 49h-600q-450 50 -450 400q0 400 450 400h150v100h450v-100h150q450 0 450 -350h-1000q-200 0 -200 -50q1 -50 200 -50h551q449 -50 449 -400q0 -400 -450 -400h-150v-100h-450v100h-150q-450 0 -450 350z" />
<glyph unicode="%" horiz-adv-x="2150" d="M0 925v325q0 200 225 200h425q225 0 225 -200v-325q0 -200 -225 -200h-425q-225 0 -225 200zM225 975q0 -75 100 -75h225q100 0 100 75v225q0 75 -100 75h-225q-100 0 -100 -75v-225zM450 0l800 1450h200l-800 -1450h-200zM1025 200v325q0 200 225 200h425 q225 0 225 -200v-325q0 -200 -225 -200h-425q-225 0 -225 200zM1250 250q0 -75 100 -75h225q100 0 100 75v225q0 75 -100 75h-225q-100 0 -100 -75v-225z" />
<glyph unicode="&#x26;" horiz-adv-x="2250" d="M0 400v150q0 250 250 300q-50 50 -50 150v50q1 400 450 400h500q450 0 450 -350h-750q-200 0 -200 -100l650 -337v137h450v-370l250 -130l-250 -300l-148 77q-116 -77 -322 -77h-830q-400 0 -450 400zM450 500q0 -150 200 -150h425l-542 281q-83 -34 -83 -131z" />
<glyph unicode="'" horiz-adv-x="700" d="M0 1100v350h450v-350q0 -300 -350 -300v300h-100z" />
<glyph unicode="(" horiz-adv-x="1150" d="M0 50v1350q0 400 452 400h448v-350h-250q-200 0 -200 -150v-1150q0 -149 200 -150h250v-350h-450q-450 0 -450 400z" />
<glyph unicode=")" horiz-adv-x="1150" d="M0 0h250q200 1 200 150v1150q0 150 -200 150h-250v350h448q452 0 452 -400v-1350q0 -400 -450 -400h-450v350z" />
<glyph unicode="*" horiz-adv-x="1150" d="M-50 725l253 275h-153v200h154l-229 250h275l125 -139v189h200v-189l125 139h275l-229 -250h154v-200h-153l253 -275h-300l-125 139v-189h-200v189l-125 -139h-300z" />
<glyph unicode="+" horiz-adv-x="1500" d="M0 550v350h400v300h450v-300h400v-350h-400v-300h-450v300h-400z" />
<glyph unicode="," horiz-adv-x="700" d="M0 0v350h450v-350q0 -300 -350 -300v300h-100z" />
<glyph unicode="-" horiz-adv-x="1450" d="M0 900h1050l150 -350h-1050z" />
<glyph unicode="." horiz-adv-x="700" d="M0 0v350h450v-350h-450z" />
<glyph unicode="/" horiz-adv-x="1300" d="M-100 0l800 1450h450l-800 -1450h-450z" />
<glyph unicode="0" horiz-adv-x="2000" d="M0 400v650q0 400 450 400h850q450 0 450 -400v-650q0 -400 -450 -400h-850q-450 0 -450 400zM450 500q0 -149 200 -150h450q200 0 200 150v450q0 150 -200 150h-450q-200 0 -200 -150v-450z" />
<glyph unicode="1" horiz-adv-x="1100" d="M0 1100l250 350h600v-1450h-450v1100h-400z" />
<glyph unicode="2" horiz-adv-x="2000" d="M0 0v475q0 350 449 400l651 50q199 0 199 75v1q0 99 -199 99h-1100q0 350 450 350h850q450 0 450 -400v-75q0 -350 -450 -400l-699 -50q-152 0 -152 -75l1 -100h1300v-350h-1750z" />
<glyph unicode="3" d="M0 350h1150q200 0 200 100t-200 100h-500l-150 350h650q200 0 200 100t-200 100h-1150q0 350 450 350h900q450 0 450 -400v-100q0 -105 -150 -200q150 -100 150 -250v-100q0 -400 -420 -400h-930q-450 0 -450 350z" />
<glyph unicode="4" horiz-adv-x="2000" d="M0 300v500l1050 650h500v-800h200v-350h-200v-300h-450v1050l-650 -400h600l-150 -350h-900z" />
<glyph unicode="5" horiz-adv-x="1900" d="M0 350h1000q200 0 200 150q0 100 -200 100h-350q-200 0 -200 -50h-450v900h1550v-350h-1100v-200q0 50 210 50h540q450 0 450 -400v-150q0 -390 -450 -400h-750q-450 0 -450 350z" />
<glyph unicode="6" horiz-adv-x="1950" d="M0 380v570q0 500 450 500h850q400 0 400 -350h-1050q-200 0 -200 -150v-450q0 -150 200 -150h400q200 1 200 100.5t-200 99.5h-550l150 350h600q450 0 450 -400v-100q0 -390 -450 -400h-800q-450 20 -450 380z" />
<glyph unicode="7" horiz-adv-x="1950" d="M0 1450h1700v-350l-850 -1100h-550l850 1100h-700q-450 0 -450 350z" />
<glyph unicode="8" d="M0 400v100q0 150 150 250q-150 95 -150 200v100q0 400 450 400h900q450 0 450 -400v-100q0 -105 -150 -200q150 -100 150 -250v-100q0 -400 -420 -400h-960q-420 0 -420 400zM450 450q0 -100 200 -100h500q200 0 200 100t-200 100h-500q-200 0 -200 -100zM450 1000 q0 -100 200 -100h500q200 0 200 100t-200 100h-500q-200 0 -200 -100z" />
<glyph unicode="9" horiz-adv-x="1950" d="M0 350h1050q200 0 200 150v450q0 150 -200 150h-400q-200 -1 -200 -100.5t200 -99.5h400l150 -350h-750q-450 0 -450 400v100q0 390 450 400h800q450 -20 450 -380v-570q0 -500 -450 -500h-850q-400 0 -400 350z" />
<glyph unicode=":" horiz-adv-x="700" d="M0 0v350h450v-350h-450zM0 550v350h450v-350h-450z" />
<glyph unicode=";" horiz-adv-x="700" d="M0 0v350h450v-350q0 -300 -350 -300v300h-100zM0 550v350h450v-350h-450z" />
<glyph unicode="&#x3c;" horiz-adv-x="1350" d="M0 699l560 501h550l-550 -500l550 -500h-550z" />
<glyph unicode="=" horiz-adv-x="1500" d="M0 300v350h1250v-350h-1250zM0 850v350h1250v-350h-1250z" />
<glyph unicode="&#x3e;" horiz-adv-x="1350" d="M0 200l550 500l-550 500h550l560 -501l-560 -499h-550z" />
<glyph unicode="?" d="M0 1100q0 350 450 350h900q450 0 450 -400v-300q0 -350 -420 -350h-880q0 350 450 350h200q200 0 200 150v50q0 150 -200 150h-1150zM500 0v350h450v-350h-450z" />
<glyph unicode="@" horiz-adv-x="1700" d="M0 400v650q0 400 450 400h550q420 0 448 -349l2 -1v-550h-950l150 350h350v50q0 150 -200 150h-150q-200 -1 -200 -150v-450q0 -150 200 -150h798v-3q0 -347 -448 -347h-550q-450 0 -450 400z" />
<glyph unicode="A" d="M-100 0l750 1450h500l750 -1450h-450l-138 250h-462l-150 350h419l-219 397l-550 -997h-450z" />
<glyph unicode="B" d="M0 0v1450h1250q450 0 450 -400v-150q0 -55 -50 -100q150 -102 150 -300v-150q0 -350 -420 -350h-1380zM450 350h700q200 0 200 100t-200 100h-500l-150 350h550q200 0 200 100t-200 100h-600v-750z" />
<glyph unicode="C" horiz-adv-x="2000" d="M0 400v650q0 400 450 400h850q448 0 448 -347v-3h-1098q-200 0 -200 -150v-450q0 -149 200 -150h1098q-27 -350 -448 -350h-850q-450 0 -450 400z" />
<glyph unicode="D" horiz-adv-x="2150" d="M0 0v1450h1450q450 0 450 -400v-650q0 -400 -450 -400h-800l-150 350h750q200 0 200 150v450q0 150 -200 150h-800v-1100h-450z" />
<glyph unicode="E" horiz-adv-x="1800" d="M0 300v850q0 300 300 300h1250v-350h-1100v-750h1100v-350h-1250q-300 0 -300 300zM500 900h800l150 -350h-800z" />
<glyph unicode="F" horiz-adv-x="1800" d="M0 0v1150q0 300 300 300h1250v-350h-1100v-1100h-450zM500 900h800l150 -350h-800z" />
<glyph unicode="G" horiz-adv-x="2000" d="M0 400v650q0 400 450 400h850q448 0 448 -347v-3h-1098q-200 0 -200 -150v-450q0 -149 200 -150h450q200 0 200 150v50h-350l-150 350h950v-550l-2 -1q-28 -349 -448 -349h-850q-450 0 -450 400z" />
<glyph unicode="H" d="M0 0v1450h450v-1450h-450zM500 900h850v550h450v-1450h-450v550h-700z" />
<glyph unicode="I" horiz-adv-x="700" d="M0 0v1450h450v-1450h-450z" />
<glyph unicode="J" horiz-adv-x="1650" d="M0 350h750q200 0 200 150v950h450v-1050q0 -400 -450 -400h-500q-450 0 -450 350z" />
<glyph unicode="K" horiz-adv-x="2000" d="M0 0v1450h450v-500h200l550 500h550l-700 -700l800 -750h-550l-850 750v-750h-450z" />
<glyph unicode="L" horiz-adv-x="1800" d="M0 300v1150h450v-1100h1100v-350h-1250q-300 0 -300 300z" />
<glyph unicode="M" horiz-adv-x="2550" d="M0 0v1450h400q200 0 300 -150l450 -700l450 700q100 150 300 150h400v-1450h-450v950l-600 -950h-200l-600 950v-950h-450z" />
<glyph unicode="N" horiz-adv-x="2200" d="M0 0v1450h400q200 0 350 -150l750 -850v1000h450v-1450h-400q-200 0 -350 150l-750 850v-1000h-450z" />
<glyph unicode="O" horiz-adv-x="2150" d="M0 400v650q0 400 450 400h1000q450 0 450 -400v-650q0 -400 -450 -400h-1000q-450 0 -450 400zM450 500q0 -149 200 -150h600q200 0 200 150v450q0 150 -200 150h-600q-200 0 -200 -150v-450z" />
<glyph unicode="P" d="M0 0v1450h1350q450 0 450 -400v-300q0 -350 -420 -350h-730l-150 350h650q200 0 200 150v50q0 150 -200 150h-700v-1100h-450z" />
<glyph unicode="Q" horiz-adv-x="2150" d="M0 400v650q0 400 450 400h1000q450 0 450 -400v-660l150 -90l-150 -300l-136 81q-111 -81 -314 -81h-1000q-450 0 -450 400zM450 500q0 -149 200 -150h600q33 0 60 4l-410 246l150 300l400 -240v290q0 150 -200 150h-600q-200 0 -200 -150v-450z" />
<glyph unicode="R" d="M0 0v1450h1350q450 0 450 -400v-300q0 -150 -101 -200q101 -49 101 -200v-350h-450v250q0 150 -200 150h-500l-150 350h650q200 0 200 150v50q0 150 -200 150h-700v-1100h-450z" />
<glyph unicode="S" horiz-adv-x="2000" d="M0 350h1150q150 0 151 100q0 75 -151 75l-700 50q-450 50 -450 400v75q0 400 450 400h850q450 0 450 -350h-1100q-199 0 -199 -99v-1q0 -75 199 -75l651 -50q449 -50 449 -400v-75q0 -400 -450 -400h-850q-450 0 -450 350z" />
<glyph unicode="T" horiz-adv-x="1900" d="M0 1100v350h1650v-350h-1650zM600 0v1050l450 -100v-950h-450z" />
<glyph unicode="U" horiz-adv-x="2000" d="M0 400v1050h450v-950q0 -149 200 -150h450q200 0 200 150v950h450v-1050q0 -400 -450 -400h-850q-450 0 -450 400z" />
<glyph unicode="V" d="M-100 1450h450l550 -997l550 997h450l-750 -1450h-500z" />
<glyph unicode="W" horiz-adv-x="3050" d="M-100 1450h450l450 -1050l400 1050h400l400 -1050l450 1050h450l-600 -1450h-300q-250 0 -300 150l-300 750l-350 -900h-320q-230 0 -280 150z" />
<glyph unicode="X" horiz-adv-x="2150" d="M-100 0l690 750l-640 700h550l450 -500l450 500h550l-640 -700l690 -750h-600l-450 500l-450 -500h-600z" />
<glyph unicode="Y" horiz-adv-x="2000" d="M-100 1450h500l475 -570l475 570h500l-750 -862v-588h-450v588z" />
<glyph unicode="Z" horiz-adv-x="1900" d="M0 0v350l1050 750h-1050v350h1650v-350l-950 -750h500q450 0 450 -350h-1650z" />
<glyph unicode="[" horiz-adv-x="1150" d="M0 -350v2150h900v-350h-450v-1450h450v-350h-900z" />
<glyph unicode="\" horiz-adv-x="1300" d="M-100 1450h450l800 -1450h-450z" />
<glyph unicode="]" horiz-adv-x="1150" d="M0 0h450v1450h-450v350h900v-2150h-900v350z" />
<glyph unicode="^" horiz-adv-x="1250" d="M0 1550l325 600h350l325 -600h-425l-75 150l-74 -150h-426z" />
<glyph unicode="_" horiz-adv-x="1800" d="M0 0h1800v-350h-1800v350z" />
<glyph unicode="`" horiz-adv-x="950" d="M0 1800l400 400l300 -550l-100 -100z" />
<glyph unicode="a" horiz-adv-x="1640" d="M-80 0l600 1160h400l600 -1160h-360l-110 200h-370l-120 280h335l-175 318l-440 -798h-360z" />
<glyph unicode="b" horiz-adv-x="1640" d="M0 0v1160h1000q360 0 360 -320v-120q0 -44 -40 -80q120 -81 120 -240v-120q0 -280 -336 -280h-1104zM360 280h560q160 0 160 80t-160 80h-400l-120 280h440q160 0 160 80t-160 80h-480v-600z" />
<glyph unicode="c" horiz-adv-x="1600" d="M0 320v520q0 320 360 320h680q358 0 358 -277v-3h-878q-160 0 -160 -120v-360q0 -119 160 -120h878q-21 -280 -358 -280h-680q-360 0 -360 320z" />
<glyph unicode="d" horiz-adv-x="1720" d="M0 0v1160h1160q360 0 360 -320v-520q0 -320 -360 -320h-640l-120 280h600q160 0 160 120v360q0 120 -160 120h-640v-880h-360z" />
<glyph unicode="e" horiz-adv-x="1440" d="M0 240v680q0 240 240 240h1000v-280h-880v-600h880v-280h-1000q-240 0 -240 240zM400 720h640l120 -280h-640z" />
<glyph unicode="f" horiz-adv-x="1440" d="M0 0v920q0 240 240 240h1000v-280h-880v-880h-360zM400 720h640l120 -280h-640z" />
<glyph unicode="g" horiz-adv-x="1600" d="M0 320v520q0 320 360 320h680q358 0 358 -277v-3h-878q-160 0 -160 -120v-360q0 -119 160 -120h360q160 0 160 120v40h-280l-120 280h760v-440l-2 -1q-22 -279 -358 -279h-680q-360 0 -360 320z" />
<glyph unicode="h" horiz-adv-x="1640" d="M0 0v1160h360v-1160h-360zM400 720h680v440h360v-1160h-360v440h-560z" />
<glyph unicode="i" horiz-adv-x="560" d="M0 0v1160h360v-1160h-360z" />
<glyph unicode="j" horiz-adv-x="1320" d="M0 280h600q160 0 160 120v760h360v-840q0 -320 -360 -320h-400q-360 0 -360 280z" />
<glyph unicode="k" horiz-adv-x="1600" d="M0 0v1160h360v-400h160l440 400h440l-560 -560l640 -600h-440l-680 600v-600h-360z" />
<glyph unicode="l" horiz-adv-x="1440" d="M0 240v920h360v-880h880v-280h-1000q-240 0 -240 240z" />
<glyph unicode="m" horiz-adv-x="2040" d="M0 0v1160h320q160 0 240 -120l360 -560l360 560q80 120 240 120h320v-1160h-360v760l-480 -760h-160l-480 760v-760h-360z" />
<glyph unicode="n" horiz-adv-x="1760" d="M0 0v1160h320q160 0 280 -120l600 -680v800h360v-1160h-320q-160 0 -280 120l-600 680v-800h-360z" />
<glyph unicode="o" horiz-adv-x="1720" d="M0 320v520q0 320 360 320h800q360 0 360 -320v-520q0 -320 -360 -320h-800q-360 0 -360 320zM360 400q0 -119 160 -120h480q160 0 160 120v360q0 120 -160 120h-480q-160 0 -160 -120v-360z" />
<glyph unicode="p" horiz-adv-x="1640" d="M0 0v1160h1080q360 0 360 -320v-240q0 -280 -336 -280h-584l-120 280h520q160 0 160 120v40q0 120 -160 120h-560v-880h-360z" />
<glyph unicode="q" horiz-adv-x="1720" d="M0 320v520q0 320 360 320h800q360 0 360 -320v-528l120 -72l-120 -240l-108 65q-90 -65 -252 -65h-800q-360 0 -360 320zM360 400q0 -119 160 -120h480q26 0 48 3l-328 197l120 240l320 -192v232q0 120 -160 120h-480q-160 0 -160 -120v-360z" />
<glyph unicode="r" horiz-adv-x="1640" d="M0 0v1160h1080q360 0 360 -320v-240q0 -120 -81 -160q81 -39 81 -160v-280h-360v200q0 120 -160 120h-400l-120 280h520q160 0 160 120v40q0 120 -160 120h-560v-880h-360z" />
<glyph unicode="s" horiz-adv-x="1600" d="M0 280h920q120 0 121 80q0 60 -121 60l-560 40q-360 40 -360 320v60q0 320 360 320h680q360 0 360 -280h-880q-159 0 -159 -79v-1q0 -60 159 -60l521 -40q359 -40 359 -320v-60q0 -320 -360 -320h-680q-360 0 -360 280z" />
<glyph unicode="t" horiz-adv-x="1520" d="M0 880v280h1320v-280h-1320zM480 0v840l360 -80v-760h-360z" />
<glyph unicode="u" horiz-adv-x="1600" d="M0 320v840h360v-760q0 -119 160 -120h360q160 0 160 120v760h360v-840q0 -320 -360 -320h-680q-360 0 -360 320z" />
<glyph unicode="v" horiz-adv-x="1640" d="M-80 1160h360l440 -797l440 797h360l-600 -1160h-400z" />
<glyph unicode="w" horiz-adv-x="2440" d="M-80 1160h360l360 -840l320 840h320l320 -840l360 840h360l-480 -1160h-240q-200 0 -240 120l-240 600l-280 -720h-256q-184 0 -224 120z" />
<glyph unicode="x" horiz-adv-x="1720" d="M-80 0l552 600l-512 560h440l360 -400l360 400h440l-512 -560l552 -600h-480l-360 400l-360 -400h-480z" />
<glyph unicode="y" horiz-adv-x="1600" d="M-80 1160h400l380 -456l380 456h400l-600 -690v-470h-360v470z" />
<glyph unicode="z" horiz-adv-x="1520" d="M0 0v280l840 600h-840v280h1320v-280l-760 -600h400q360 0 360 -280h-1320z" />
<glyph unicode="{" horiz-adv-x="1150" d="M-100 900h150q200 0 200 150v350q0 400 452 400h198v-350q-200 0 -200 -150v-400q0 -150 -101 -200q101 -49 101 -200v-350q0 -149 200 -150v-350h-200q-450 0 -450 400v350q0 150 -200 150z" />
<glyph unicode="|" horiz-adv-x="700" d="M0 -350v2150h450v-2150h-450z" />
<glyph unicode="}" horiz-adv-x="1150" d="M0 0q200 1 200 150v350q0 151 101 200q-101 50 -101 200v400q0 150 -200 150v350h198q452 0 452 -400v-350q0 -150 200 -150l150 -350h-150q-200 0 -200 -150v-350q0 -400 -450 -400h-200v350z" />
<glyph unicode="~" horiz-adv-x="1150" d="M0 1550v350q100 100 175 125t125 25t150 -75t150 -75t125 25t175 125v-350q-100 -100 -175 -125t-125 -25t-150 75t-150 75t-125 -25t-175 -125z" />
<glyph unicode="&#xa1;" horiz-adv-x="700" d="M0 0v900h450v-900h-450zM0 1100v350h450v-350h-450z" />
<glyph unicode="&#xa2;" horiz-adv-x="1700" d="M0 550v300q0 400 450 400h50v150h450v-150h50q421 0 448 -350h-798q-200 0 -200 -150v-100q0 -149 200 -150h798q-27 -350 -448 -350h-50v-150h-450v150h-50q-450 0 -450 400z" />
<glyph unicode="&#xa3;" horiz-adv-x="1800" d="M0 0v350h150v800q0 300 300 300h1100v-350h-950v-750h950v-350h-1550zM650 900h650l150 -350h-650z" />
<glyph unicode="&#xa4;" horiz-adv-x="2150" d="M50 200l336 342q-36 85 -36 197t59 217l-259 294h550l29 -35q102 35 221 35t221 -35l29 35h550l-259 -294q59 -105 59 -221t-42 -207l292 -328h-600l-29 35q-102 -35 -230.5 -35t-243.5 47l-47 -47h-600zM750 725q0 -93 58.5 -159t141.5 -66t141.5 66t58.5 159t-58.5 159 t-141.5 66t-141.5 -66t-58.5 -159z" />
<glyph unicode="&#xa5;" horiz-adv-x="2000" d="M-100 1450h500l458 -550h34l458 550h500l-526 -605l126 -295h-350v-100h200l150 -350h-350v-100h-450v100h-200l-150 350h350v100h-200l-150 350h79z" />
<glyph unicode="&#xa6;" horiz-adv-x="700" d="M0 -350v900h450v-900h-450zM0 900v900h450v-900h-450z" />
<glyph unicode="&#xa7;" horiz-adv-x="1014" d="M170 1130q0 148 86 232q93 92 236 92h3q66 0 163 -16.5t97 -41.5v-194h-51q-5 81 -77.5 130t-151.5 53h-15q-78 0 -125 -44.5t-47 -117.5q0 -132 287 -269q149 -67 204.5 -143.5t55.5 -187.5q0 -171 -101 -282q-47 -39 -99 -64q108 -56 158.5 -125.5t50.5 -179.5 q0 -171 -101 -283q-124 -102 -277 -105v1q-6 -1 -13 -1h-3q-66 0 -163 16.5t-97 41.5v194h51q5 -81 76.5 -129t148.5 -53q113 6 185 69.5t72 164.5q0 125 -316 276q-123 64 -175.5 137t-52.5 177q0 148 89 237q67 65 170 82l-40 19q-123 64 -175.5 137t-52.5 177zM297 571 q0 -123 248 -250q56 16 97 53q73 65 73 166q0 5 -1 10h-2q-1 14 -4 27q-22 61 -113 127q-59 29 -131.5 29t-119.5 -44.5t-47 -117.5z" />
<glyph unicode="&#xa8;" horiz-adv-x="1350" d="M0 1550v350h450v-350h-450zM650 1550v350h450v-350h-450z" />
<glyph unicode="&#xa9;" horiz-adv-x="2000" d="M0 400v650q0 400 450 400h850q450 0 450 -400v-650q0 -400 -450 -400h-850q-450 0 -450 400zM350 400q0 -149 200 -150h650q200 0 200 150v650q0 150 -200 150h-650q-200 0 -200 -150v-650zM450 550v325q0 200 225 200h400q224 0 224 -173v-2h-524q-100 0 -100 -75v-225 q0 -74 100 -75h524q-14 -175 -224 -175h-400q-225 0 -225 200z" />
<glyph unicode="&#xaa;" horiz-adv-x="1025" d="M-50 725l375 725h250l375 -725h-225l-69 125h-231l-75 175h210l-110 199l-275 -499h-225z" />
<glyph unicode="&#xab;" horiz-adv-x="944" d="M174 479l342 303h14v-37l-205 -266l205 -266v-37h-14zM487 479l342 303h14v-37l-205 -266l205 -266v-37h-14z" />
<glyph unicode="&#xac;" horiz-adv-x="1014" d="M87 667v100h840v-491l-1 -1h-98v392h-741z" />
<glyph unicode="&#xad;" horiz-adv-x="1450" d="M0 900h1050l150 -350h-1050z" />
<glyph unicode="&#xae;" horiz-adv-x="1025" d="M0 400v650q0 400 450 400h850q450 0 450 -400v-650q0 -400 -450 -400h-850q-450 0 -450 400zM350 400q0 -149 200 -150h650q200 0 200 150v650q0 150 -200 150h-650q-200 0 -200 -150v-650zM425 375v725h675q225 0 225 -200v-150q0 -75 -50 -100q50 -25 50 -100v-175 h-225v125q0 75 -100 75h-250l-75 175h325q100 0 100 75v25q0 75 -100 75h-350v-550h-225z" />
<glyph unicode="&#xaf;" horiz-adv-x="1800" d="M0 1450v350h1800v-350h-1800z" />
<glyph unicode="&#xb0;" horiz-adv-x="674" d="M60 1164q0 116 81.5 197t197 81t196.5 -81.5t81 -196t-82 -196.5t-198 -82t-196 81t-80 197zM130 1163q0 -87 61 -147t148 -60t147 60t60 147t-60.5 148t-146.5 61t-147.5 -61t-61.5 -148z" />
<glyph unicode="&#xb1;" horiz-adv-x="1500" d="M0 0v350h1250v-350h-1250zM0 750v350h400v300h450v-300h400v-350h-400v-300h-450v300h-400z" />
<glyph unicode="&#xb2;" horiz-adv-x="1000" d="M0 725v238q0 175 225 200l325 25q100 0 100 37q0 50 -100 50h-550q0 175 225 175h425q225 0 225 -200v-37q0 -175 -225 -200l-350 -25q-75 0 -75 -38v-50h650v-175h-875z" />
<glyph unicode="&#xb3;" horiz-adv-x="1025" d="M0 900h575q100 0 100 50t-100 50h-250l-75 175h325q100 0 100 50t-100 50h-575q0 175 225 175h450q225 0 225 -200v-50q0 -52 -75 -100q75 -50 75 -125v-50q0 -200 -210 -200h-465q-225 0 -225 175z" />
<glyph unicode="&#xb4;" horiz-adv-x="950" d="M0 1650l300 550l400 -400l-600 -250z" />
<glyph unicode="&#xb5;" horiz-adv-x="1600" d="M0 -280v1440h360v-760q0 -119 160 -120h360q160 0 160 120v760h360v-840q0 -320 -360 -320h-680v-280h-360z" />
<glyph unicode="&#xb6;" horiz-adv-x="1024" d="M93 1089q0 154 107.5 250t285.5 96h443v-70h-127v-1365h-82v1365h-166v-1365h-84v738q-174 8 -275.5 102.5t-101.5 248.5z" />
<glyph unicode="&#xb7;" horiz-adv-x="700" d="M0 550v350h450v-350h-450z" />
<glyph unicode="&#xb8;" horiz-adv-x="1100" d="M0 -50h400v200h450v-200q0 -350 -450 -350h-250z" />
<glyph unicode="&#xb9;" horiz-adv-x="550" d="M0 1275l125 175h300v-725h-225v550h-200z" />
<glyph unicode="&#xba;" horiz-adv-x="1000" d="M0 925v325q0 200 225 200h425q225 0 225 -200v-325q0 -200 -225 -200h-425q-225 0 -225 200zM225 975q0 -75 100 -75h225q100 0 100 75v225q0 75 -100 75h-225q-100 0 -100 -75v-225z" />
<glyph unicode="&#xbb;" horiz-adv-x="944" d="M101 176v37l205 266l-205 266v37h14l342 -303l-342 -303h-14zM414 176v37l205 266l-205 266v37h14l342 -303l-342 -303h-14z" />
<glyph unicode="&#xbc;" horiz-adv-x="1750" d="M0 1275l125 175h300v-725h-225v550h-200zM100 0l800 1450h200l-800 -1450h-200zM625 150v250l525 325h250v-400h100v-175h-100v-150h-225v525l-325 -200h300l-75 -175h-450z" />
<glyph unicode="&#xbd;" horiz-adv-x="1850" d="M0 1275l125 175h300v-725h-225v550h-200zM100 0l800 1450h200l-800 -1450h-200zM725 0v238q0 175 225 200l325 25q100 0 100 37q0 50 -100 50h-550q0 175 225 175h425q225 0 225 -200v-37q0 -175 -225 -200l-350 -25q-75 0 -75 -38v-50h650v-175h-875z" />
<glyph unicode="&#xbe;" horiz-adv-x="2150" d="M0 900h575q100 0 100 50t-100 50h-250l-75 175h325q100 0 100 50t-100 50h-575q0 175 225 175h450q225 0 225 -200v-50q0 -52 -75 -100q75 -50 75 -125v-50q0 -200 -210 -200h-465q-225 0 -225 175zM500 0l800 1450h200l-800 -1450h-200zM1025 150v250l525 325h250v-400 h100v-175h-100v-150h-225v525l-325 -200h300l-75 -175h-450z" />
<glyph unicode="&#xbf;" d="M0 400v300q0 350 420 350h880q0 -350 -450 -350h-200q-200 0 -200 -150v-50q0 -150 200 -150h1150q0 -350 -450 -350h-900q-450 0 -450 400zM850 1100v350h450v-350h-450z" />
<glyph unicode="&#xc0;" d="M-100 0l750 1450h500l750 -1450h-450l-138 250h-462l-150 350h419l-219 397l-550 -997h-450zM550 1800l400 400l300 -550l-100 -100z" />
<glyph unicode="&#xc1;" d="M-100 0l750 1450h500l750 -1450h-450l-138 250h-462l-150 350h419l-219 397l-550 -997h-450zM550 1650l300 550l400 -400l-600 -250z" />
<glyph unicode="&#xc2;" d="M-100 0l750 1450h500l750 -1450h-450l-138 250h-462l-150 350h419l-219 397l-550 -997h-450zM400 1550l325 600h350l324 -600h-424l-75 150l-75 -150h-425z" />
<glyph unicode="&#xc3;" d="M-100 0l750 1450h500l750 -1450h-450l-138 250h-462l-150 350h419l-219 397l-550 -997h-450zM450 1550v350q100 100 175 125t125 25t150 -75t150 -75t125 25t175 125v-350q-100 -100 -175 -125t-125 -25t-150 75t-150 75t-125 -25t-175 -125z" />
<glyph unicode="&#xc4;" d="M-100 0l750 1450h500l750 -1450h-450l-138 250h-462l-150 350h419l-219 397l-550 -997h-450zM350 1550v350h450v-350h-450zM1000 1550v350h450v-350h-450z" />
<glyph unicode="&#xc5;" d="M-100 0l750 1450h500l750 -1450h-450l-138 250h-462l-150 350h419l-219 397l-550 -997h-450zM675 1550v350h450v-350h-450z" />
<glyph unicode="&#xc6;" horiz-adv-x="2950" d="M-100 0l750 1450h500l52 -102q73 102 248 102h1250v-350h-1100v-520l119 -230h981v-350h-1250q-274 0 -298 250h-302l-150 350h419l-219 397l-550 -997h-450zM1650 900h800l150 -350h-800z" />
<glyph unicode="&#xc7;" horiz-adv-x="2000" d="M0 400v650q0 400 450 400h850q448 0 448 -347v-3h-1098q-200 0 -200 -150v-450q0 -149 200 -150h1098q-27 -350 -448 -350h-150v-50q0 -350 -450 -350h-250l-150 350h400v50h-250q-450 0 -450 400z" />
<glyph unicode="&#xc8;" horiz-adv-x="1800" d="M0 300v850q0 300 300 300h1250v-350h-1100v-750h1100v-350h-1250q-300 0 -300 300zM450 1800l400 400l300 -550l-100 -100zM500 900h800l150 -350h-800z" />
<glyph unicode="&#xc9;" horiz-adv-x="1800" d="M0 300v850q0 300 300 300h1250v-350h-1100v-750h1100v-350h-1250q-300 0 -300 300zM450 1650l300 550l400 -400l-600 -250zM500 900h800l150 -350h-800z" />
<glyph unicode="&#xca;" horiz-adv-x="1800" d="M0 300v850q0 300 300 300h1250v-350h-1100v-750h1100v-350h-1250q-300 0 -300 300zM300 1550l325 600h350l324 -600h-424l-75 150l-75 -150h-425zM500 900h800l150 -350h-800z" />
<glyph unicode="&#xcb;" horiz-adv-x="1800" d="M0 300v850q0 300 300 300h1250v-350h-1100v-750h1100v-350h-1250q-300 0 -300 300zM250 1550v350h450v-350h-450zM500 900h800l150 -350h-800zM900 1550v350h450v-350h-450z" />
<glyph unicode="&#xcc;" horiz-adv-x="700" d="M-125 1800l400 400l300 -550l-100 -100zM0 0v1450h450v-1450h-450z" />
<glyph unicode="&#xcd;" horiz-adv-x="700" d="M-125 1650l300 550l400 -400l-600 -250zM0 0v1450h450v-1450h-450z" />
<glyph unicode="&#xce;" horiz-adv-x="700" d="M-275 1550l325 600h350l325 -600h-425l-75 150l-74 -150h-426zM0 0v1450h450v-1450h-450z" />
<glyph unicode="&#xcf;" horiz-adv-x="700" d="M-325 1550v350h450v-350h-450zM0 0v1450h450v-1450h-450zM325 1550v350h450v-350h-450z" />
<glyph unicode="&#xd0;" horiz-adv-x="2150" d="M-150 900h400v550h1200q450 0 450 -400v-650q0 -400 -450 -400h-550l-150 350h500q200 0 200 150v450q0 150 -200 150h-550v-200h250l150 -350h-400v-550h-450v550h-250z" />
<glyph unicode="&#xd1;" horiz-adv-x="2200" d="M0 0v1450h400q200 0 350 -150l750 -850v1000h450v-1450h-400q-200 0 -350 150l-750 850v-1000h-450zM525 1550v350q100 100 175 125t125 25t150 -75t150 -75t125 25t175 125v-350q-100 -100 -175 -125t-125 -25t-150 75t-150 75t-125 -25t-175 -125z" />
<glyph unicode="&#xd2;" horiz-adv-x="2150" d="M0 400v650q0 400 450 400h1000q450 0 450 -400v-650q0 -400 -450 -400h-1000q-450 0 -450 400zM450 500q0 -149 200 -150h600q200 0 200 150v450q0 150 -200 150h-600q-200 0 -200 -150v-450zM600 1800l400 400l300 -550l-100 -100z" />
<glyph unicode="&#xd3;" horiz-adv-x="2150" d="M0 400v650q0 400 450 400h1000q450 0 450 -400v-650q0 -400 -450 -400h-1000q-450 0 -450 400zM450 500q0 -149 200 -150h600q200 0 200 150v450q0 150 -200 150h-600q-200 0 -200 -150v-450zM600 1650l300 550l400 -400l-600 -250z" />
<glyph unicode="&#xd4;" horiz-adv-x="2150" d="M0 400v650q0 400 450 400h1000q450 0 450 -400v-650q0 -400 -450 -400h-1000q-450 0 -450 400zM450 500q0 -149 200 -150h600q200 0 200 150v450q0 150 -200 150h-600q-200 0 -200 -150v-450zM450 1550l325 600h350l324 -600h-424l-75 150l-75 -150h-425z" />
<glyph unicode="&#xd5;" horiz-adv-x="2150" d="M0 400v650q0 400 450 400h1000q450 0 450 -400v-650q0 -400 -450 -400h-1000q-450 0 -450 400zM450 500q0 -149 200 -150h600q200 0 200 150v450q0 150 -200 150h-600q-200 0 -200 -150v-450zM500 1550v350q100 100 175 125t125 25t150 -75t150 -75t125 25t175 125v-350 q-100 -100 -175 -125t-125 -25t-150 75t-150 75t-125 -25t-175 -125z" />
<glyph unicode="&#xd6;" horiz-adv-x="2150" d="M0 400v650q0 400 450 400h1000q450 0 450 -400v-650q0 -400 -450 -400h-1000q-450 0 -450 400zM400 1550v350h450v-350h-450zM450 500q0 -149 200 -150h600q200 0 200 150v450q0 150 -200 150h-600q-200 0 -200 -150v-450zM1050 1550v350h450v-350h-450z" />
<glyph unicode="&#xd7;" horiz-adv-x="2150" d="M50 200l540 550l-440 500h550l250 -300l250 300h550l-440 -500l490 -550h-600l-250 300l-300 -300h-600z" />
<glyph unicode="&#xd8;" horiz-adv-x="2150" d="M0 400v650q0 400 450 400h1100l-3 -5q353 -41 353 -395v-650q0 -400 -450 -400h-1150l7 12q-307 58 -307 388zM450 500q0 -82 60 -119l397 719h-257q-200 0 -200 -150v-450zM981 350h269q200 0 200 150v450q0 100 -90 134z" />
<glyph unicode="&#xd9;" horiz-adv-x="2000" d="M0 400v1050h450v-950q0 -149 200 -150h450q200 0 200 150v950h450v-1050q0 -400 -450 -400h-850q-450 0 -450 400zM500 1800l400 400l300 -550l-100 -100z" />
<glyph unicode="&#xda;" horiz-adv-x="2000" d="M0 400v1050h450v-950q0 -149 200 -150h450q200 0 200 150v950h450v-1050q0 -400 -450 -400h-850q-450 0 -450 400zM500 1650l300 550l400 -400l-600 -250z" />
<glyph unicode="&#xdb;" horiz-adv-x="2000" d="M0 400v1050h450v-950q0 -149 200 -150h450q200 0 200 150v950h450v-1050q0 -400 -450 -400h-850q-450 0 -450 400zM376 1550l325 600h350l324 -600h-424l-75 150l-75 -150h-425z" />
<glyph unicode="&#xdc;" horiz-adv-x="2000" d="M0 400v1050h450v-950q0 -149 200 -150h450q200 0 200 150v950h450v-1050q0 -400 -450 -400h-850q-450 0 -450 400zM325 1550v350h450v-350h-450zM975 1550v350h450v-350h-450z" />
<glyph unicode="&#xdd;" horiz-adv-x="2000" d="M-100 1450h500l475 -570l475 570h500l-750 -862v-588h-450v588zM500 1650l300 550l400 -400l-600 -250z" />
<glyph unicode="&#xde;" d="M0 0v1450h450v-200h900q450 0 450 -400v-300q0 -350 -420 -350h-730l-150 350h650q200 0 200 150v50q0 150 -200 150h-700v-900h-450z" />
<glyph unicode="&#xdf;" d="M0 0v1050q0 400 450 400h800q450 0 450 -400v-150q0 -55 -50 -100q150 -102 150 -300v-150q0 -350 -420 -350h-730l-150 350h650q200 0 200 100t-200 100h-500l-150 350h550q200 0 200 100t-200 100h-400q-200 0 -200 -150v-950h-450z" />
<glyph unicode="&#xe0;" horiz-adv-x="1640" d="M-80 0l600 1160h400l600 -1160h-360l-110 200h-370l-120 280h335l-175 318l-440 -798h-360zM440 1440l320 320l240 -440l-80 -80z" />
<glyph unicode="&#xe1;" horiz-adv-x="1640" d="M-80 0l600 1160h400l600 -1160h-360l-110 200h-370l-120 280h335l-175 318l-440 -798h-360zM440 1320l240 440l320 -320l-480 -200z" />
<glyph unicode="&#xe2;" horiz-adv-x="1640" d="M-80 0l600 1160h400l600 -1160h-360l-110 200h-370l-120 280h335l-175 318l-440 -798h-360zM320 1240l260 480h280l260 -480h-340l-60 120l-60 -120h-340z" />
<glyph unicode="&#xe3;" horiz-adv-x="1640" d="M-80 0l600 1160h400l600 -1160h-360l-110 200h-370l-120 280h335l-175 318l-440 -798h-360zM360 1240v280q80 80 140 100t100 20t120 -60t120 -60t100 20t140 100v-280q-80 -80 -140 -100t-100 -20t-120 60t-120 60t-100 -20t-140 -100z" />
<glyph unicode="&#xe4;" horiz-adv-x="1640" d="M-80 0l600 1160h400l600 -1160h-360l-110 200h-370l-120 280h335l-175 318l-440 -798h-360zM280 1240v280h360v-280h-360zM800 1240v280h360v-280h-360z" />
<glyph unicode="&#xe5;" horiz-adv-x="1640" d="M-80 0l600 1160h400l600 -1160h-360l-110 200h-370l-120 280h335l-175 318l-440 -798h-360zM540 1240v280h360v-280h-360z" />
<glyph unicode="&#xe6;" horiz-adv-x="2360" d="M-80 0l600 1160h400l42 -81q58 81 198 81h1000v-280h-880v-416l95 -184h785v-280h-1000q-219 0 -238 200h-242l-120 280h335l-175 318l-440 -798h-360zM1320 720h640l120 -280h-640z" />
<glyph unicode="&#xe7;" horiz-adv-x="1600" d="M0 320v520q0 320 360 320h680q358 0 358 -277v-3h-878q-160 0 -160 -120v-360q0 -119 160 -120h878q-21 -280 -358 -280h-120v-40q0 -280 -360 -280h-200l-120 280h320v40h-200q-360 0 -360 320z" />
<glyph unicode="&#xe8;" horiz-adv-x="1440" d="M0 240v680q0 240 240 240h1000v-280h-880v-600h880v-280h-1000q-240 0 -240 240zM360 1440l320 320l240 -440l-80 -80zM400 720h640l120 -280h-640z" />
<glyph unicode="&#xe9;" horiz-adv-x="1440" d="M0 240v680q0 240 240 240h1000v-280h-880v-600h880v-280h-1000q-240 0 -240 240zM360 1320l240 440l320 -320l-480 -200zM400 720h640l120 -280h-640z" />
<glyph unicode="&#xea;" horiz-adv-x="1440" d="M0 240v680q0 240 240 240h1000v-280h-880v-600h880v-280h-1000q-240 0 -240 240zM240 1240l260 480h280l260 -480h-340l-60 120l-60 -120h-340zM400 720h640l120 -280h-640z" />
<glyph unicode="&#xeb;" horiz-adv-x="1440" d="M0 240v680q0 240 240 240h1000v-280h-880v-600h880v-280h-1000q-240 0 -240 240zM200 1240v280h360v-280h-360zM400 720h640l120 -280h-640zM720 1240v280h360v-280h-360z" />
<glyph unicode="&#xec;" horiz-adv-x="560" d="M-100 1440l320 320l240 -440l-80 -80zM0 0v1160h360v-1160h-360z" />
<glyph unicode="&#xed;" horiz-adv-x="560" d="M-100 1320l240 440l320 -320l-480 -200zM0 0v1160h360v-1160h-360z" />
<glyph unicode="&#xee;" horiz-adv-x="560" d="M-220 1240l260 480h280l260 -480h-340l-60 120l-59 -120h-341zM0 0v1160h360v-1160h-360z" />
<glyph unicode="&#xef;" horiz-adv-x="560" d="M-260 1240v280h360v-280h-360zM0 0v1160h360v-1160h-360zM260 1240v280h360v-280h-360z" />
<glyph unicode="&#xf0;" horiz-adv-x="1720" d="M-120 720h320v440h960q360 0 360 -320v-520q0 -320 -360 -320h-440l-120 280h400q160 0 160 120v360q0 120 -160 120h-440v-160h200l120 -280h-320v-440h-360v440h-200z" />
<glyph unicode="&#xf1;" horiz-adv-x="1760" d="M0 0v1160h320q160 0 280 -120l600 -680v800h360v-1160h-320q-160 0 -280 120l-600 680v-800h-360zM420 1240v280q80 80 140 100t100 20t120 -60t120 -60t100 20t140 100v-280q-80 -80 -140 -100t-100 -20t-120 60t-120 60t-100 -20t-140 -100z" />
<glyph unicode="&#xf2;" horiz-adv-x="1720" d="M0 320v520q0 320 360 320h800q360 0 360 -320v-520q0 -320 -360 -320h-800q-360 0 -360 320zM360 400q0 -119 160 -120h480q160 0 160 120v360q0 120 -160 120h-480q-160 0 -160 -120v-360zM480 1440l320 320l240 -440l-80 -80z" />
<glyph unicode="&#xf3;" horiz-adv-x="1720" d="M0 320v520q0 320 360 320h800q360 0 360 -320v-520q0 -320 -360 -320h-800q-360 0 -360 320zM360 400q0 -119 160 -120h480q160 0 160 120v360q0 120 -160 120h-480q-160 0 -160 -120v-360zM480 1320l240 440l320 -320l-480 -200z" />
<glyph unicode="&#xf4;" horiz-adv-x="1720" d="M0 320v520q0 320 360 320h800q360 0 360 -320v-520q0 -320 -360 -320h-800q-360 0 -360 320zM360 400q0 -119 160 -120h480q160 0 160 120v360q0 120 -160 120h-480q-160 0 -160 -120v-360zM360 1240l260 480h280l260 -480h-340l-60 120l-60 -120h-340z" />
<glyph unicode="&#xf5;" horiz-adv-x="1720" d="M0 320v520q0 320 360 320h800q360 0 360 -320v-520q0 -320 -360 -320h-800q-360 0 -360 320zM360 400q0 -119 160 -120h480q160 0 160 120v360q0 120 -160 120h-480q-160 0 -160 -120v-360zM400 1240v280q80 80 140 100t100 20t120 -60t120 -60t100 20t140 100v-280 q-80 -80 -140 -100t-100 -20t-120 60t-120 60t-100 -20t-140 -100z" />
<glyph unicode="&#xf6;" horiz-adv-x="1720" d="M0 320v520q0 320 360 320h800q360 0 360 -320v-520q0 -320 -360 -320h-800q-360 0 -360 320zM320 1240v280h360v-280h-360zM360 400q0 -119 160 -120h480q160 0 160 120v360q0 120 -160 120h-480q-160 0 -160 -120v-360zM840 1240v280h360v-280h-360z" />
<glyph unicode="&#xf7;" horiz-adv-x="1500" d="M0 550v350h1250v-350h-1250zM400 100v350h450v-350h-450zM400 1000v350h450v-350h-450z" />
<glyph unicode="&#xf8;" horiz-adv-x="1720" d="M0 320v520q0 320 360 320h880l-2 -4q282 -33 282 -316v-520q0 -320 -360 -320h-920l5 10q-245 46 -245 310zM360 400q0 -65 48 -95l318 575h-206q-160 0 -160 -120v-360zM785 280h215q160 0 160 120v360q0 80 -72 107z" />
<glyph unicode="&#xf9;" horiz-adv-x="1600" d="M0 320v840h360v-760q0 -119 160 -120h360q160 0 160 120v760h360v-840q0 -320 -360 -320h-680q-360 0 -360 320zM400 1440l320 320l240 -440l-80 -80z" />
<glyph unicode="&#xfa;" horiz-adv-x="1600" d="M0 320v840h360v-760q0 -119 160 -120h360q160 0 160 120v760h360v-840q0 -320 -360 -320h-680q-360 0 -360 320zM400 1320l240 440l320 -320l-480 -200z" />
<glyph unicode="&#xfb;" horiz-adv-x="1600" d="M0 320v840h360v-760q0 -119 160 -120h360q160 0 160 120v760h360v-840q0 -320 -360 -320h-680q-360 0 -360 320zM300 1240l261 480h280l259 -480h-340l-59 120l-60 -120h-341z" />
<glyph unicode="&#xfc;" horiz-adv-x="1600" d="M0 320v840h360v-760q0 -119 160 -120h360q160 0 160 120v760h360v-840q0 -320 -360 -320h-680q-360 0 -360 320zM260 1240v280h360v-280h-360zM780 1240v280h360v-280h-360z" />
<glyph unicode="&#xfd;" horiz-adv-x="1600" d="M-80 1160h400l380 -456l380 456h400l-600 -690v-470h-360v470zM400 1320l240 440l320 -320l-480 -200z" />
<glyph unicode="&#xfe;" horiz-adv-x="1640" d="M0 0v1160h360v-160h720q360 0 360 -320v-240q0 -280 -336 -280h-584l-120 280h520q160 0 160 120v40q0 120 -160 120h-560v-720h-360z" />
<glyph unicode="&#xff;" horiz-adv-x="1600" d="M-80 1160h400l380 -456l380 456h400l-600 -690v-470h-360v470zM260 1240v280h360v-280h-360zM780 1240v280h360v-280h-360z" />
<glyph unicode="&#x2c6;" horiz-adv-x="1250" d="M0 1550l325 600h350l325 -600h-425l-75 150l-74 -150h-426z" />
<glyph unicode="&#x2dc;" horiz-adv-x="1150" d="M0 1550v350q100 100 175 125t125 25t150 -75t150 -75t125 25t175 125v-350q-100 -100 -175 -125t-125 -25t-150 75t-150 75t-125 -25t-175 -125z" />
<glyph unicode="&#x2000;" horiz-adv-x="1100" />
<glyph unicode="&#x2001;" horiz-adv-x="2200" />
<glyph unicode="&#x2002;" horiz-adv-x="1100" />
<glyph unicode="&#x2003;" horiz-adv-x="2200" />
<glyph unicode="&#x2004;" horiz-adv-x="733" />
<glyph unicode="&#x2005;" horiz-adv-x="550" />
<glyph unicode="&#x2006;" horiz-adv-x="366" />
<glyph unicode="&#x2007;" horiz-adv-x="366" />
<glyph unicode="&#x2008;" horiz-adv-x="275" />
<glyph unicode="&#x2009;" horiz-adv-x="440" />
<glyph unicode="&#x200a;" horiz-adv-x="122" />
<glyph unicode="&#x2010;" horiz-adv-x="1450" d="M0 900h1050l150 -350h-1050z" />
<glyph unicode="&#x2011;" horiz-adv-x="1450" d="M0 900h1050l150 -350h-1050z" />
<glyph unicode="&#x2012;" horiz-adv-x="1450" d="M0 900h1050l150 -350h-1050z" />
<glyph unicode="&#x2013;" horiz-adv-x="1250" d="M0 550v350h1000v-350h-1000z" />
<glyph unicode="&#x2014;" horiz-adv-x="1750" d="M0 550v350h1500v-350h-1500z" />
<glyph unicode="&#x2018;" horiz-adv-x="700" d="M0 1100v350h450v-350h-100v-300q-350 0 -350 300z" />
<glyph unicode="&#x2019;" horiz-adv-x="700" d="M0 1100v350h450v-350q0 -300 -350 -300v300h-100z" />
<glyph unicode="&#x201a;" horiz-adv-x="700" d="M0 0v350h450v-350q0 -300 -350 -300v300h-100z" />
<glyph unicode="&#x201c;" horiz-adv-x="1300" d="M0 1100v350h450v-350h-100v-300q-350 0 -350 300zM600 1100v350h450v-350h-100v-300q-350 0 -350 300z" />
<glyph unicode="&#x201d;" horiz-adv-x="1300" d="M0 1100v350h450v-350q0 -300 -350 -300v300h-100zM600 1100v350h450v-350q0 -300 -350 -300v300h-100z" />
<glyph unicode="&#x201e;" horiz-adv-x="1300" d="M0 0v350h450v-350q0 -300 -350 -300v300h-100zM600 0v350h450v-350q0 -300 -350 -300v300h-100z" />
<glyph unicode="&#x2022;" horiz-adv-x="1024" d="M216 718q0 123 87 209t209.5 86t209 -86.5t86.5 -208.5t-87.5 -209.5t-210 -87.5t-208.5 87t-86 210z" />
<glyph unicode="&#x2026;" horiz-adv-x="1900" d="M0 0v350h450v-350h-450zM600 0v350h450v-350h-450zM1200 0v350h450v-350h-450z" />
<glyph unicode="&#x202f;" horiz-adv-x="440" />
<glyph unicode="&#x2039;" horiz-adv-x="631" d="M174 479l342 303h14v-37l-205 -266l205 -266v-37h-14z" />
<glyph unicode="&#x203a;" horiz-adv-x="631" d="M101 176v37l205 266l-205 266v37h14l342 -303l-342 -303h-14z" />
<glyph unicode="&#x205f;" horiz-adv-x="550" />
<glyph unicode="&#x20ac;" horiz-adv-x="1800" d="M0 900h250v250q0 300 300 300h1000v-350h-850v-200h300l150 -350h-450v-200h850v-350h-1000q-300 0 -300 300v250h-100z" />
<glyph unicode="&#x2122;" horiz-adv-x="2175" d="M0 1275v175h825v-175h-825zM300 725v525l225 -50v-475h-225zM900 725v725h200q100 0 150 -75l225 -350l225 350q50 75 150 75h200v-725h-225v475l-300 -475h-100l-300 475v-475h-225z" />
<glyph unicode="&#xe000;" horiz-adv-x="1160" d="M0 0v1160h1160v-1160h-1160z" />
</font>
</defs>
</svg>
