<?xml version="1.0" standalone="no"?>
<!DOCTYPE svg PUBLIC "-//W3C//DTD SVG 1.1//EN" "http://www.w3.org/Graphics/SVG/1.1/DTD/svg11.dtd" >
<svg xmlns="http://www.w3.org/2000/svg">
<metadata></metadata>
<defs>
<font id="NakadaiRegular" horiz-adv-x="2550" >
<font-face units-per-em="2048" ascent="1638" descent="-410" />
<missing-glyph horiz-adv-x="2000" />
<glyph horiz-adv-x="0" />
<glyph horiz-adv-x="2048" />
<glyph unicode="&#xd;" horiz-adv-x="408" />
<glyph unicode=" "  horiz-adv-x="2000" />
<glyph unicode="&#x09;" horiz-adv-x="2000" />
<glyph unicode="&#xa0;" horiz-adv-x="2000" />
<glyph unicode="!" horiz-adv-x="900" d="M0 0v350h400v-350h-400zM0 550v900h400v-900h-400z" />
<glyph unicode="&#x22;" horiz-adv-x="1450" d="M0 900v550h450v-550h-450zM550 900v550h450v-550h-450z" />
<glyph unicode="#" horiz-adv-x="2000" d="M0 300v350h275v200h-275v350h275v250h450v-250h100v250h450v-250h275v-350h-275v-200h275v-350h-275v-300h-450v300h-100v-300h-450v300h-275zM725 650h100v200h-100v-200z" />
<glyph unicode="$" d="M0 100v350h825v100h-475q-350 0 -350 350v100q0 350 350 350h475v100h450v-100h825v-350h-825v-100h475q350 0 350 -350v-100q0 -350 -350 -350h-475v-100h-450v100h-825zM450 950q0 -50 50 -50h325v100h-325q-50 0 -50 -50zM1275 450h325q50 0 50 50t-50 50h-325v-100z " />
<glyph unicode="%" horiz-adv-x="3100" d="M0 950v200q0 350 350 350h850q332 0 349 -314l301 264h550l-626 -550h526q350 0 350 -350v-200q0 -350 -350 -350h-850q-329 0 -349 309l-351 -309h-550l683 600h-533q-350 0 -350 350zM450 1000q0 -50 50 -50h550q50 0 50 50v100q0 50 -50 50h-550q-50 0 -50 -50v-100z M1550 400q0 -50 50 -50h550q50 0 50 50v100q0 50 -50 50h-550q-50 0 -50 -50v-100z" />
<glyph unicode="&#x26;" d="M0 350v200q0 89 100 150q-100 76 -100 200v200q0 350 350 350h850q350 0 350 -350v-200h600v-350h-550q-50 0 -50 -50v-100q0 -50 50 -50h550v-350h-1800q-350 0 -350 350zM450 400q0 -50 50 -50h550q50 0 50 50v100q0 50 -50 50h-550q-50 0 -50 -50v-100zM450 950 q0 -50 50 -50h550q50 0 50 50v100q0 50 -50 50h-550q-50 0 -50 -50v-100z" />
<glyph unicode="'" horiz-adv-x="900" d="M0 900v550h450v-550h-450z" />
<glyph unicode="(" horiz-adv-x="1450" d="M0 -200v1850q0 350 350 350h650v-350h-500q-50 0 -50 -50v-1750q0 -50 50 -50h500v-350h-650q-350 0 -350 350z" />
<glyph unicode=")" horiz-adv-x="1450" d="M0 -200h500q50 0 50 50v1750q0 50 -50 50h-500v350h650q350 0 350 -350v-1850q0 -350 -350 -350h-650v350z" />
<glyph unicode="*" horiz-adv-x="1650" d="M0 1000v350h159l-109 100h500l50 -46l50 46h500l-109 -100h159v-350h-159l109 -100h-500l-50 46l-50 -46h-500l109 100h-159z" />
<glyph unicode="+" horiz-adv-x="2000" d="M0 550v350h550v550h450v-550h550v-350h-550v-550h-450v550h-550z" />
<glyph unicode="," horiz-adv-x="900" d="M0 -200v550h450v-550h-450z" />
<glyph unicode="-" horiz-adv-x="2000" d="M0 550v350h1550v-350h-1550z" />
<glyph unicode="." horiz-adv-x="900" d="M0 0v350h450v-350h-450z" />
<glyph unicode="/" horiz-adv-x="2600" d="M0 0l1650 1450h550l-1650 -1450h-550z" />
<glyph unicode="0" d="M0 350v750q0 350 350 350h1400q350 0 350 -350v-750q0 -350 -350 -350h-1400q-350 0 -350 350zM450 400q0 -50 50 -50h1100q50 0 50 50v650q0 50 -50 50h-1100q-50 0 -50 -50v-650z" />
<glyph unicode="1" horiz-adv-x="1450" d="M0 1100v350h1000v-1450h-450v1100h-550z" />
<glyph unicode="2" d="M0 0v550q0 350 350 350h1250q50 0 50 50v100q0 50 -50 50h-1600v350h1750q350 0 350 -350v-200q0 -350 -350 -350h-1250q-50 0 -50 -50v-150h1650v-350h-2100z" />
<glyph unicode="3" d="M0 0v350h1600q50 0 50 50v100q0 50 -50 50h-1100v350h1100q50 0 50 50v100q0 50 -50 50h-1600v350h1750q350 0 350 -350v-200q0 -124 -100 -200q100 -61 100 -150v-200q0 -350 -350 -350h-1750z" />
<glyph unicode="4" d="M0 900v550h450v-500q0 -50 50 -50h1150v550h450v-1450h-450v550h-1300q-350 0 -350 350z" />
<glyph unicode="5" d="M0 0v350h1600q50 0 50 50v100q0 50 -50 50h-1250q-350 0 -350 350v550h2100v-350h-1650v-150q0 -50 50 -50h1250q350 0 350 -350v-200q0 -350 -350 -350h-1750z" />
<glyph unicode="6" d="M0 350v750q0 350 350 350h1750v-350h-1600q-50 0 -50 -50v-150h1300q350 0 350 -350v-200q0 -350 -350 -350h-1400q-350 0 -350 350zM450 400q0 -50 50 -50h1100q50 0 50 50v100q0 50 -50 50h-1150v-150z" />
<glyph unicode="7" horiz-adv-x="2600" d="M0 0l1252 1100h-1202v350h2150l-1650 -1450h-550z" />
<glyph unicode="8" d="M0 350v200q0 89 100 150q-100 76 -100 200v200q0 350 350 350h1400q350 0 350 -350v-200q0 -124 -100 -200q100 -61 100 -150v-200q0 -350 -350 -350h-1400q-350 0 -350 350zM450 400q0 -50 50 -50h1100q50 0 50 50v100q0 50 -50 50h-1100q-50 0 -50 -50v-100zM450 950 q0 -50 50 -50h1100q50 0 50 50v100q0 50 -50 50h-1100q-50 0 -50 -50v-100z" />
<glyph unicode="9" d="M0 0v350h1600q50 0 50 50v150h-1300q-350 0 -350 350v200q0 350 350 350h1400q350 0 350 -350v-750q0 -350 -350 -350h-1750zM450 950q0 -50 50 -50h1150v150q0 50 -50 50h-1100q-50 0 -50 -50v-100z" />
<glyph unicode=":" horiz-adv-x="900" d="M0 0v350h450v-350h-450zM0 550v350h450v-350h-450z" />
<glyph unicode=";" horiz-adv-x="900" d="M0 -200v550h450v-550h-450zM0 550v350h450v-350h-450z" />
<glyph unicode="&#x3c;" horiz-adv-x="1825" d="M0 725l825 725h550l-825 -725l825 -725h-550z" />
<glyph unicode="=" horiz-adv-x="2000" d="M0 300v350h1550v-350h-1550zM0 850v350h1550v-350h-1550z" />
<glyph unicode="&#x3e;" horiz-adv-x="1825" d="M0 0l825 725l-825 725h550l825 -725l-825 -725h-550z" />
<glyph unicode="?" d="M0 1100v350h1750q350 0 350 -350v-200q0 -350 -350 -350h-1200v350h1050q50 0 50 50v100q0 50 -50 50h-1600zM550 0v350h450v-350h-450z" />
<glyph unicode="@" horiz-adv-x="2000" d="M0 350v750q0 350 350 350h850q350 0 350 -350v-650h-650q-350 0 -350 350v300h-50q-50 0 -50 -50v-650q0 -50 50 -50h1050v-350h-1200q-350 0 -350 350zM1000 850q0 -50 50 -50h50v300h-50q-50 0 -50 -50v-200z" />
<glyph unicode="A" d="M0 350v200q0 350 350 350h1300v150q0 50 -50 50h-1600v350h1750q350 0 350 -350v-1100h-1750q-350 0 -350 350zM450 400q0 -50 50 -50h1150v200h-1150q-50 0 -50 -50v-100z" />
<glyph unicode="B" d="M0 0v1450h1750q350 0 350 -350v-200q0 -124 -100 -200q100 -61 100 -150v-200q0 -350 -350 -350h-1750zM450 350h1150q50 0 50 50v100q0 50 -50 50h-1150v-200zM450 900h1150q50 0 50 50v100q0 50 -50 50h-1150v-200z" />
<glyph unicode="C" d="M0 350v750q0 350 350 350h1750v-350h-1600q-50 0 -50 -50v-650q0 -50 50 -50h1600v-350h-1750q-350 0 -350 350z" />
<glyph unicode="D" d="M0 0v1450h1750q350 0 350 -350v-750q0 -350 -350 -350h-1750zM450 350h1150q50 0 50 50v650q0 50 -50 50h-1150v-750z" />
<glyph unicode="E" d="M0 350v750q0 350 350 350h1400q350 0 350 -350v-200q0 -350 -350 -350h-1300v-150q0 -50 50 -50h1600v-350h-1750q-350 0 -350 350zM450 900h1150q50 0 50 50v100q0 50 -50 50h-1100q-50 0 -50 -50v-150z" />
<glyph unicode="F" d="M0 0v1450h2100v-350h-1650v-200h1650v-350h-1650v-550h-450z" />
<glyph unicode="G" d="M0 350v750q0 350 350 350h1750v-350h-1600q-50 0 -50 -50v-650q0 -50 50 -50h1200v400h400v-750h-1750q-350 0 -350 350z" />
<glyph unicode="H" d="M0 0v1450h450v-550h1200v550h450v-1450h-450v550h-1200v-550h-450z" />
<glyph unicode="I" horiz-adv-x="900" d="M0 0v1450h450v-1450h-450z" />
<glyph unicode="J" horiz-adv-x="2000" d="M0 0v350h1050q50 0 50 50v1050h450v-1100q0 -350 -350 -350h-1200z" />
<glyph unicode="K" d="M0 0v1450h450v-550h524l626 550h550l-825 -725l825 -725h-550l-626 550h-524v-550h-450z" />
<glyph unicode="L" horiz-adv-x="2000" d="M0 350v1100h450v-1050q0 -50 50 -50h1050v-350h-1200q-350 0 -350 350z" />
<glyph unicode="M" horiz-adv-x="3100" d="M0 0v1450h2300q350 0 350 -350v-1100h-450v1050q0 50 -50 50h-600v-1100h-450v1100h-650v-1100h-450z" />
<glyph unicode="N" d="M0 0v1450h1750q350 0 350 -350v-1100h-450v1050q0 50 -50 50h-1150v-1100h-450z" />
<glyph unicode="O" d="M0 350v750q0 350 350 350h1400q350 0 350 -350v-750q0 -350 -350 -350h-1400q-350 0 -350 350zM450 400q0 -50 50 -50h1100q50 0 50 50v650q0 50 -50 50h-1100q-50 0 -50 -50v-650z" />
<glyph unicode="P" d="M0 0v1450h1750q350 0 350 -350v-200q0 -350 -350 -350h-1300v-550h-450zM450 900h1150q50 0 50 50v100q0 50 -50 50h-1150v-200z" />
<glyph unicode="Q" d="M0 350v750q0 350 350 350h1400q350 0 350 -350v-750q0 -157 -71 -244l121 -106h-1800q-350 0 -350 350zM450 400q0 -50 50 -50h702l-427 375h550l325 -286v611q0 50 -50 50h-1100q-50 0 -50 -50v-650z" />
<glyph unicode="R" d="M0 0v1450h1750q350 0 350 -350v-200q0 -124 -100 -200q100 -61 100 -150v-550h-450v500q0 50 -50 50h-1150v-550h-450zM450 900h1150q50 0 50 50v100q0 50 -50 50h-1150v-200z" />
<glyph unicode="S" d="M0 0v350h1600q50 0 50 50v100q0 50 -50 50h-1250q-350 0 -350 350v200q0 350 350 350h1750v-350h-1600q-50 0 -50 -50v-100q0 -50 50 -50h1250q350 0 350 -350v-200q0 -350 -350 -350h-1750z" />
<glyph unicode="T" d="M0 1100v350h2100v-350h-825v-1100h-450v1100h-825z" />
<glyph unicode="U" d="M0 350v1100h450v-1050q0 -50 50 -50h1150v1100h450v-1450h-1750q-350 0 -350 350z" />
<glyph unicode="V" d="M0 950v500h450v-450l600 -516l600 516v450h450v-500l-1050 -950z" />
<glyph unicode="W" horiz-adv-x="3100" d="M0 350v1100h450v-1050q0 -50 50 -50h600v1100h450v-1100h650v1100h450v-1450h-2300q-350 0 -350 350z" />
<glyph unicode="X" horiz-adv-x="2600" d="M0 0l825 725l-825 725h550l550 -483l550 483h550l-825 -725l825 -725h-550l-550 483l-550 -483h-550z" />
<glyph unicode="Y" d="M0 0v350h1600q50 0 50 50v150h-1300q-350 0 -350 350v550h450v-500q0 -50 50 -50h1150v550h450v-1100q0 -350 -350 -350h-1750z" />
<glyph unicode="Z" horiz-adv-x="2600" d="M0 0l1252 1100h-1202v350h2150l-1252 -1100h1202v-350h-2150z" />
<glyph unicode="[" horiz-adv-x="1450" d="M0 -550v2550h1000v-350h-550v-1850h550v-350h-1000z" />
<glyph unicode="\" horiz-adv-x="2600" d="M0 1450h550l1650 -1450h-550z" />
<glyph unicode="]" horiz-adv-x="1450" d="M0 -200h550v1850h-550v350h1000v-2550h-1000v350z" />
<glyph unicode="^" horiz-adv-x="1450" d="M0 1550l275 450h450l275 -450h-450l-50 82l-50 -82h-450z" />
<glyph unicode="_" d="M0 -50h2100v-350h-2100v350z" />
<glyph unicode="`" horiz-adv-x="1500" d="M0 2000h500l600 -450h-500z" />
<glyph unicode="a" horiz-adv-x="2350" d="M0 350v100q0 350 350 350h1050v50q0 50 -50 50h-1350v350h1500q350 0 350 -350v-900h-1500q-350 0 -350 350zM450 400q0 -50 50 -50h900v100h-900q-50 0 -50 -50z" />
<glyph unicode="b" horiz-adv-x="2350" d="M0 0v1450h450v-200h1100q350 0 350 -350v-550q0 -350 -350 -350h-1550zM450 350h950q50 0 50 50v450q0 50 -50 50h-950v-550z" />
<glyph unicode="c" horiz-adv-x="2350" d="M0 350v550q0 350 350 350h1550v-350h-1400q-50 0 -50 -50v-450q0 -50 50 -50h1400v-350h-1550q-350 0 -350 350z" />
<glyph unicode="d" horiz-adv-x="2350" d="M0 350v550q0 350 350 350h1100v200h450v-1450h-1550q-350 0 -350 350zM450 400q0 -50 50 -50h950v550h-950q-50 0 -50 -50v-450z" />
<glyph unicode="e" horiz-adv-x="2350" d="M0 350v550q0 350 350 350h1200q350 0 350 -350v-100q0 -350 -350 -350h-1100v-50q0 -50 50 -50h1400v-350h-1550q-350 0 -350 350zM450 800h950q50 0 50 50t-50 50h-900q-50 0 -50 -50v-50z" />
<glyph unicode="f" horiz-adv-x="2350" d="M0 550v350h450v200q0 350 350 350h1100v-350h-950q-50 0 -50 -50v-150h1000v-350h-1000v-550h-450v550h-450z" />
<glyph unicode="g" horiz-adv-x="2350" d="M0 -100h1400q50 0 50 50v50h-1100q-350 0 -350 350v550q0 350 350 350h1200q350 0 350 -350v-1000q0 -350 -350 -350h-1550v350zM450 400q0 -50 50 -50h900q50 0 50 50v450q0 50 -50 50h-900q-50 0 -50 -50v-450z" />
<glyph unicode="h" horiz-adv-x="2350" d="M0 0v1450h450v-200h1100q350 0 350 -350v-900h-450v850q0 50 -50 50h-950v-900h-450z" />
<glyph unicode="i" horiz-adv-x="900" d="M0 0v1250h450v-1250h-450zM0 1350v100h450v-100h-450z" />
<glyph unicode="j" horiz-adv-x="900" d="M0 -200v1450h450v-1450h-450zM0 1350v100h450v-100h-450z" />
<glyph unicode="k" horiz-adv-x="2350" d="M0 0v1450h450v-650h350l626 450h550l-825 -625l825 -625h-550l-626 450h-350v-450h-450z" />
<glyph unicode="l" horiz-adv-x="900" d="M0 0v1450h450v-1450h-450z" />
<glyph unicode="m" horiz-adv-x="2900" d="M0 0v1250h2100q350 0 350 -350v-900h-450v850q0 50 -50 50h-500v-900h-450v900h-550v-900h-450z" />
<glyph unicode="n" horiz-adv-x="2350" d="M0 0v1250h1550q350 0 350 -350v-900h-450v850q0 50 -50 50h-950v-900h-450z" />
<glyph unicode="o" horiz-adv-x="2350" d="M0 350v550q0 350 350 350h1200q350 0 350 -350v-550q0 -350 -350 -350h-1200q-350 0 -350 350zM450 400q0 -50 50 -50h900q50 0 50 50v450q0 50 -50 50h-900q-50 0 -50 -50v-450z" />
<glyph unicode="p" horiz-adv-x="2350" d="M0 -450v1700h1550q350 0 350 -350v-550q0 -350 -350 -350h-1100v-450h-450zM450 350h950q50 0 50 50v450q0 50 -50 50h-950v-550z" />
<glyph unicode="q" horiz-adv-x="2350" d="M0 350v550q0 350 350 350h1550v-1700h-450v450h-1100q-350 0 -350 350zM450 400q0 -50 50 -50h950v550h-950q-50 0 -50 -50v-450z" />
<glyph unicode="r" horiz-adv-x="2350" d="M0 0v1250h1550q350 0 350 -350v-50h-450q0 50 -50 50h-950v-900h-450z" />
<glyph unicode="s" horiz-adv-x="2350" d="M0 0v350h1400q50 0 50 50t-50 50h-1050q-350 0 -350 350v100q0 350 350 350h1550v-350h-1400q-50 0 -50 -50t50 -50h1050q350 0 350 -350v-100q0 -350 -350 -350h-1550z" />
<glyph unicode="t" horiz-adv-x="2350" d="M0 900v350h450v200h450v-200h1000v-350h-1000v-500q0 -50 50 -50h950v-350h-1100q-350 0 -350 350v550h-450z" />
<glyph unicode="u" horiz-adv-x="2350" d="M0 350v900h450v-850q0 -50 50 -50h950v900h450v-1250h-1550q-350 0 -350 350z" />
<glyph unicode="v" horiz-adv-x="2350" d="M0 850v400h450v-350l500 -416l500 416v350h450v-400l-950 -850z" />
<glyph unicode="w" horiz-adv-x="2900" d="M0 350v900h450v-850q0 -50 50 -50h500v900h450v-900h550v900h450v-1250h-2100q-350 0 -350 350z" />
<glyph unicode="x" horiz-adv-x="2400" d="M0 0l725 625l-725 625h550l450 -388l450 388h550l-725 -625l725 -625h-550l-450 388l-450 -388h-550z" />
<glyph unicode="y" horiz-adv-x="2350" d="M0 -100h1400q50 0 50 50v50h-1100q-350 0 -350 350v900h450v-850q0 -50 50 -50h950v900h450v-1350q0 -350 -350 -350h-1550v350z" />
<glyph unicode="z" horiz-adv-x="2400" d="M0 0l1052 900h-1002v350h1950l-1052 -900h1002v-350h-1950z" />
<glyph unicode="{" horiz-adv-x="1700" d="M0 550v350h200q50 0 50 50v700q0 350 350 350h650v-350h-500q-50 0 -50 -50v-700q0 -124 -100 -200q100 -61 100 -150v-700q0 -50 50 -50h500v-350h-650q-350 0 -350 350v700q0 50 -50 50h-200z" />
<glyph unicode="|" horiz-adv-x="900" d="M0 -550v2550h450v-2550h-450z" />
<glyph unicode="}" horiz-adv-x="1700" d="M0 -200h500q50 0 50 50v700q0 89 100 150q-100 76 -100 200v700q0 50 -50 50h-500v350h650q350 0 350 -350v-700q0 -50 50 -50h200v-350h-200q-50 0 -50 -50v-700q0 -350 -350 -350h-650v350z" />
<glyph unicode="~" horiz-adv-x="1800" d="M0 1550v450h1000q350 0 350 -350v-100h-450v50q0 50 -50 50h-400v-100h-450z" />
<glyph unicode="&#xa1;" horiz-adv-x="900" d="M0 0v900h400v-900h-400zM0 1100v350h400v-350h-400z" />
<glyph unicode="&#xa2;" horiz-adv-x="2020" d="M0 360v440q0 280 280 280h380v80h360v-80h660v-280h-660v-440h660v-280h-660v-80h-360v80h-380q-280 0 -280 280zM360 400q0 -40 40 -40h260v440h-260q-40 0 -40 -40v-360z" />
<glyph unicode="&#xa3;" d="M0 0v350h450v750q0 350 350 350h1300v-350h-1150q-50 0 -50 -50v-150h1200v-350h-1200v-200h1200v-350h-2100z" />
<glyph unicode="&#xa4;" horiz-adv-x="792" d="M0 413l118 117q-60 86 -60 187t60 186l-118 118l80 81l118 -118q88 60 187 60t186 -60l118 118l80 -81l-117 -117q60 -89 60 -187t-60 -187l117 -117l-80 -81l-118 118q-84 -60 -186.5 -60t-186.5 60l-118 -118zM162 717q0 -29 9 -57q33 -121 156 -157q29 -8 58 -8 q90 0 157 65q66 68 66 157t-66 157q-67 65 -158 65q-89 0 -156 -65q-39 -40 -52.5 -84t-13.5 -73z" />
<glyph unicode="&#xa5;" d="M0 900v550h450v-500q0 -50 50 -50h1100q50 0 50 50v500h450v-550q0 -350 -350 -350h-475v-100h275v-350h-275v-100h-450v100h-275v350h275v100h-475q-350 0 -350 350z" />
<glyph unicode="&#xa6;" horiz-adv-x="900" d="M0 -550v1100h450v-1100h-450zM0 900v1100h450v-1100h-450z" />
<glyph unicode="&#xa7;" horiz-adv-x="744" d="M0 1130q0 148 86 232q93 92 236 92h3q66 0 163 -16.5t97 -41.5v-194h-51q-5 81 -77.5 130t-151.5 53h-15q-78 0 -125 -44.5t-47 -117.5q0 -132 287 -269q149 -67 204.5 -143.5t55.5 -187.5q0 -171 -101 -282q-47 -39 -99 -64q108 -56 158.5 -125.5t50.5 -179.5 q0 -171 -101 -283q-124 -102 -277 -105v1q-6 -1 -13 -1h-3q-66 0 -163 16.5t-97 41.5v194h51q5 -81 76.5 -129t148.5 -53q113 6 185 69.5t72 164.5q0 125 -316 276q-123 64 -175.5 137t-52.5 177q0 148 89 237q67 65 170 82l-40 19q-123 64 -175.5 137t-52.5 177zM127 571 q0 -123 248 -250q56 16 97 53q73 65 73 166q0 5 -1 10h-2q-1 14 -4 27q-22 61 -113 127q-59 29 -131.5 29t-119.5 -44.5t-47 -117.5z" />
<glyph unicode="&#xa8;" horiz-adv-x="1450" d="M0 1650v350h450v-350h-450zM550 1650v350h450v-350h-450z" />
<glyph unicode="&#xa9;" horiz-adv-x="1474" d="M0 718q0 148 55.5 283t158.5 238.5t239.5 160t284 56.5t282.5 -56.5t238 -159t159.5 -239.5t56.5 -283.5t-56.5 -281.5t-161.5 -240q-216 -214 -523 -214q-298 0 -516 216q-217 213 -217 520zM60 718q0 -279 199 -478q202 -198 475 -198q279 0 479 196q201 203 201 480 q0 134 -52 259.5t-146.5 220.5t-218.5 146.5t-259.5 51.5t-260.5 -51.5t-220 -147.5q-197 -199 -197 -479zM251 719q0 126 65.5 244t187.5 184.5t254 66.5q76 0 151 -27q5 -1 9 -1q19 0 26 30h42l72 -198h-44q-52 94 -127.5 122t-150.5 28h-15q-86 -8 -166.5 -71 t-117.5 -165t-37 -196q0 -148 65 -262.5t156 -163.5q72 -40 181 -41t179 55t70 126h53v-100q0 -46 -96.5 -86.5t-240.5 -40.5t-266 68t-186 185t-64 243z" />
<glyph unicode="&#xaa;" horiz-adv-x="2350" d="M0 550v100q0 350 350 350h1050v50q0 50 -50 50h-1350v350h1500q350 0 350 -350v-900h-1500q-350 0 -350 350zM450 600q0 -50 50 -50h900v100h-900q-50 0 -50 -50z" />
<glyph unicode="&#xab;" horiz-adv-x="2775" d="M0 725l825 725h550l-825 -725l825 -725h-550zM750 725l825 725h550l-825 -725l825 -725h-550z" />
<glyph unicode="&#xac;" horiz-adv-x="827" d="M0 667v100h840v-491l-1 -1h-98v392h-741z" />
<glyph unicode="&#xad;" horiz-adv-x="2000" d="M0 550v350h1550v-350h-1550z" />
<glyph unicode="&#xae;" horiz-adv-x="1474" d="M0 718q0 148 55.5 283t158.5 238.5t239.5 160t284 56.5t282.5 -56.5t238 -159t159.5 -239.5t56.5 -283.5t-56.5 -281.5t-161.5 -240q-216 -214 -523 -214q-298 0 -516 216q-217 213 -217 520zM60 718q0 -279 199 -478q202 -198 475 -198q279 0 479 196q201 203 201 480 q0 134 -52 259.5t-146.5 220.5t-218.5 146.5t-259.5 51.5t-260.5 -51.5t-220 -147.5q-197 -199 -197 -479zM424 269v50h43q37 0 37 121v538q0 121 -37 121h-43v70h356q64 -1 124.5 -42t93 -114t32.5 -152q0 -175 -146 -285l82 -116q100 -141 150 -141h34v-50h-346v50h45 q30 0 30 22q0 29 -69 114l-75 102q-42 0 -84 42v-159q0 -121 36 -121h53v-50h-316zM651 725q23 -62 55.5 -86.5t59.5 -24.5h6q31 4 62 38q59 68 59 201q0 82 -26.5 145.5t-59 82t-63.5 18.5h-93v-374z" />
<glyph unicode="&#xaf;" d="M0 1650v350h2100v-350h-2100z" />
<glyph unicode="&#xb0;" horiz-adv-x="514" d="M0 1164q0 116 81.5 197t197 81t196.5 -81.5t81 -196t-82 -196.5t-198 -82t-196 81t-80 197zM70 1163q0 -87 61 -147t148 -60t147 60t60 147t-60.5 148t-146.5 61t-147.5 -61t-61.5 -148z" />
<glyph unicode="&#xb1;" horiz-adv-x="914" />
<glyph unicode="&#xb2;" horiz-adv-x="914" />
<glyph unicode="&#xb3;" horiz-adv-x="914" />
<glyph unicode="&#xb4;" horiz-adv-x="1500" d="M0 1550l600 450h500l-600 -450h-500z" />
<glyph unicode="&#xb5;" horiz-adv-x="1080" />
<glyph unicode="&#xb6;" horiz-adv-x="831" d="M0 1089q0 154 107.5 250t285.5 96h443v-70h-127v-1365h-82v1365h-166v-1365h-84v738q-174 8 -275.5 102.5t-101.5 248.5z" />
<glyph unicode="&#xb7;" horiz-adv-x="900" d="M0 550v350h450v-350h-450z" />
<glyph unicode="&#xb8;" horiz-adv-x="1450" d="M0 -50h500q50 0 50 50v100h450v-150q0 -350 -350 -350h-650v350z" />
<glyph unicode="&#xb9;" horiz-adv-x="914" />
<glyph unicode="&#xba;" horiz-adv-x="618" />
<glyph unicode="&#xbb;" horiz-adv-x="2775" d="M0 0l825 725l-825 725h550l825 -725l-825 -725h-550zM750 0l825 725l-825 725h550l825 -725l-825 -725h-550z" />
<glyph unicode="&#xbc;" horiz-adv-x="1608" />
<glyph unicode="&#xbd;" horiz-adv-x="1864" />
<glyph unicode="&#xbe;" horiz-adv-x="1608" />
<glyph unicode="&#xbf;" d="M0 350v200q0 350 350 350h1200v-350h-1050q-50 0 -50 -50v-100q0 -50 50 -50h1600v-350h-1750q-350 0 -350 350zM1100 1100v350h450v-350h-450z" />
<glyph unicode="&#xc0;" d="M0 350v200q0 350 350 350h1300v150q0 50 -50 50h-1600v350h1750q350 0 350 -350v-1100h-1750q-350 0 -350 350zM450 400q0 -50 50 -50h1150v200h-1150q-50 0 -50 -50v-100zM500 2000h500l600 -450h-500z" />
<glyph unicode="&#xc1;" d="M0 350v200q0 350 350 350h1300v150q0 50 -50 50h-1600v350h1750q350 0 350 -350v-1100h-1750q-350 0 -350 350zM450 400q0 -50 50 -50h1150v200h-1150q-50 0 -50 -50v-100zM500 1550l600 450h500l-600 -450h-500z" />
<glyph unicode="&#xc2;" d="M0 350v200q0 350 350 350h1300v150q0 50 -50 50h-1600v350h1750q350 0 350 -350v-1100h-1750q-350 0 -350 350zM450 400q0 -50 50 -50h1150v200h-1150q-50 0 -50 -50v-100zM550 1550l275 450h450l275 -450h-450l-50 82l-50 -82h-450z" />
<glyph unicode="&#xc3;" d="M0 350v200q0 350 350 350h1300v150q0 50 -50 50h-1600v350h1750q350 0 350 -350v-1100h-1750q-350 0 -350 350zM400 1550v450h950q350 0 350 -350v-100h-450v50q0 50 -50 50h-350v-100h-450zM450 400q0 -50 50 -50h1150v200h-1150q-50 0 -50 -50v-100z" />
<glyph unicode="&#xc4;" d="M0 350v200q0 350 350 350h1300v150q0 50 -50 50h-1600v350h1750q350 0 350 -350v-1100h-1750q-350 0 -350 350zM450 400q0 -50 50 -50h1150v200h-1150q-50 0 -50 -50v-100zM550 1650v350h450v-350h-450zM1100 1650v350h450v-350h-450z" />
<glyph unicode="&#xc5;" d="M0 350v200q0 350 350 350h1300v150q0 50 -50 50h-1600v350h1750q350 0 350 -350v-1100h-1750q-350 0 -350 350zM450 400q0 -50 50 -50h1150v200h-1150q-50 0 -50 -50v-100zM825 1650v350h450v-350h-450z" />
<glyph unicode="&#xc6;" d="M0 350v200q0 350 350 350h475v150q0 50 -50 50h-775v350h1750q350 0 350 -350v-200q0 -350 -350 -350h-475v-150q0 -50 50 -50h775v-350h-1750q-350 0 -350 350zM450 400q0 -50 50 -50h325v200h-325q-50 0 -50 -50v-100zM1275 900h325q50 0 50 50v100q0 50 -50 50h-275 q-50 0 -50 -50v-150z" />
<glyph unicode="&#xc7;" d="M0 350v750q0 350 350 350h1750v-350h-1600q-50 0 -50 -50v-650q0 -50 50 -50h1600v-350h-550v-100q0 -350 -350 -350h-650v350h500q50 0 50 50v50h-750q-350 0 -350 350z" />
<glyph unicode="&#xc8;" d="M0 350v750q0 350 350 350h1400q350 0 350 -350v-200q0 -350 -350 -350h-1300v-150q0 -50 50 -50h1600v-350h-1750q-350 0 -350 350zM450 900h1150q50 0 50 50v100q0 50 -50 50h-1100q-50 0 -50 -50v-150zM500 2000h500l600 -450h-500z" />
<glyph unicode="&#xc9;" d="M0 350v750q0 350 350 350h1400q350 0 350 -350v-200q0 -350 -350 -350h-1300v-150q0 -50 50 -50h1600v-350h-1750q-350 0 -350 350zM450 900h1150q50 0 50 50v100q0 50 -50 50h-1100q-50 0 -50 -50v-150zM500 1550l600 450h500l-600 -450h-500z" />
<glyph unicode="&#xca;" d="M0 350v750q0 350 350 350h1400q350 0 350 -350v-200q0 -350 -350 -350h-1300v-150q0 -50 50 -50h1600v-350h-1750q-350 0 -350 350zM450 900h1150q50 0 50 50v100q0 50 -50 50h-1100q-50 0 -50 -50v-150zM550 1550l275 450h450l275 -450h-450l-50 82l-50 -82h-450z" />
<glyph unicode="&#xcb;" d="M0 350v750q0 350 350 350h1400q350 0 350 -350v-200q0 -350 -350 -350h-1300v-150q0 -50 50 -50h1600v-350h-1750q-350 0 -350 350zM450 900h1150q50 0 50 50v100q0 50 -50 50h-1100q-50 0 -50 -50v-150zM550 1650v350h450v-350h-450zM1100 1650v350h450v-350h-450z" />
<glyph unicode="&#xcc;" horiz-adv-x="900" d="M-350 2000h500l600 -450h-500zM0 0v1450h450v-1450h-450z" />
<glyph unicode="&#xcd;" horiz-adv-x="900" d="M-300 1550l600 450h500l-600 -450h-500zM0 0v1450h450v-1450h-450z" />
<glyph unicode="&#xce;" horiz-adv-x="900" d="M-277 1550l275 450h450l275 -450h-450l-50 82l-50 -82h-450zM0 0v1450h450v-1450h-450z" />
<glyph unicode="&#xcf;" horiz-adv-x="900" d="M-273 1650v350h450v-350h-450zM0 0v1450h450v-1450h-450zM277 1650v350h450v-350h-450z" />
<glyph unicode="&#xd0;" d="M0 550v350h300v550h1450q350 0 350 -350v-750q0 -350 -350 -350h-1450v550h-300zM750 350h850q50 0 50 50v650q0 50 -50 50h-850v-200h800v-350h-800v-200z" />
<glyph unicode="&#xd1;" d="M0 0v1450h1750q350 0 350 -350v-1100h-450v1050q0 50 -50 50h-1150v-1100h-450zM400 1550v450h950q350 0 350 -350v-100h-450v50q0 50 -50 50h-350v-100h-450z" />
<glyph unicode="&#xd2;" d="M0 350v750q0 350 350 350h1400q350 0 350 -350v-750q0 -350 -350 -350h-1400q-350 0 -350 350zM450 400q0 -50 50 -50h1100q50 0 50 50v650q0 50 -50 50h-1100q-50 0 -50 -50v-650zM500 2000h500l600 -450h-500z" />
<glyph unicode="&#xd3;" d="M0 350v750q0 350 350 350h1400q350 0 350 -350v-750q0 -350 -350 -350h-1400q-350 0 -350 350zM450 400q0 -50 50 -50h1100q50 0 50 50v650q0 50 -50 50h-1100q-50 0 -50 -50v-650zM500 1550l600 450h500l-600 -450h-500z" />
<glyph unicode="&#xd4;" d="M0 350v750q0 350 350 350h1400q350 0 350 -350v-750q0 -350 -350 -350h-1400q-350 0 -350 350zM450 400q0 -50 50 -50h1100q50 0 50 50v650q0 50 -50 50h-1100q-50 0 -50 -50v-650zM550 1550l275 450h450l275 -450h-450l-50 82l-50 -82h-450z" />
<glyph unicode="&#xd5;" d="M0 350v750q0 350 350 350h1400q350 0 350 -350v-750q0 -350 -350 -350h-1400q-350 0 -350 350zM425 1550l275 450h450l50 -82l50 82h425l-250 -450h-450l-50 82l-50 -82h-450zM450 400q0 -50 50 -50h1100q50 0 50 50v650q0 50 -50 50h-1100q-50 0 -50 -50v-650z" />
<glyph unicode="&#xd6;" d="M0 350v750q0 350 350 350h1400q350 0 350 -350v-750q0 -350 -350 -350h-1400q-350 0 -350 350zM450 400q0 -50 50 -50h1100q50 0 50 50v650q0 50 -50 50h-1100q-50 0 -50 -50v-650zM550 1650v350h450v-350h-450zM1100 1650v350h450v-350h-450z" />
<glyph unicode="&#xd7;" horiz-adv-x="753" d="M0 470l247 247l-247 248l99 98l247 -247l248 247l98 -99l-247 -247l247 -247l-99 -99l-247 247l-247 -247z" />
<glyph unicode="&#xd8;" d="M0 350v750q0 350 350 350h1400q350 0 350 -350v-750q0 -350 -350 -350h-1400q-350 0 -350 350zM450 522l838 578h-788q-50 0 -50 -50v-528zM813 350h787q50 0 50 50v528z" />
<glyph unicode="&#xd9;" d="M0 350v1100h450v-1050q0 -50 50 -50h1150v1100h450v-1450h-1750q-350 0 -350 350zM500 2000h500l600 -450h-500z" />
<glyph unicode="&#xda;" d="M0 350v1100h450v-1050q0 -50 50 -50h1150v1100h450v-1450h-1750q-350 0 -350 350zM500 1550l600 450h500l-600 -450h-500z" />
<glyph unicode="&#xdb;" d="M0 350v1100h450v-1050q0 -50 50 -50h1150v1100h450v-1450h-1750q-350 0 -350 350zM550 1550l275 450h450l275 -450h-450l-50 82l-50 -82h-450z" />
<glyph unicode="&#xdc;" d="M0 350v1100h450v-1050q0 -50 50 -50h1150v1100h450v-1450h-1750q-350 0 -350 350zM550 1650v350h450v-350h-450zM1100 1650v350h450v-350h-450z" />
<glyph unicode="&#xdd;" d="M0 0v350h1600q50 0 50 50v150h-1300q-350 0 -350 350v550h450v-500q0 -50 50 -50h1150v550h450v-1100q0 -350 -350 -350h-1750zM500 1550l600 450h500l-600 -450h-500z" />
<glyph unicode="&#xde;" d="M0 0v1450h450v-100h1300q350 0 350 -350v-550q0 -350 -350 -350h-1300v-100h-450zM450 450h1150q50 0 50 50v450q0 50 -50 50h-1150v-550z" />
<glyph unicode="&#xdf;" d="M0 0v1100q0 350 350 350h1400q350 0 350 -350v-200q0 -124 -100 -200q100 -61 100 -150v-200q0 -350 -350 -350h-750v350h600q50 0 50 50v100q0 50 -50 50h-600v350h600q50 0 50 50v100q0 50 -50 50h-1100q-50 0 -50 -50v-1050h-450z" />
<glyph unicode="&#xe0;" horiz-adv-x="2350" d="M0 350v100q0 350 350 350h1050v50q0 50 -50 50h-1350v350h1500q350 0 350 -350v-900h-1500q-350 0 -350 350zM300 1800h500l600 -450h-500zM450 400q0 -50 50 -50h900v100h-900q-50 0 -50 -50z" />
<glyph unicode="&#xe1;" horiz-adv-x="2350" d="M0 350v100q0 350 350 350h1050v50q0 50 -50 50h-1350v350h1500q350 0 350 -350v-900h-1500q-350 0 -350 350zM400 1400l600 450h500l-600 -450h-500zM450 400q0 -50 50 -50h900v100h-900q-50 0 -50 -50z" />
<glyph unicode="&#xe2;" horiz-adv-x="2350" d="M0 350v100q0 350 350 350h1050v50q0 50 -50 50h-1350v350h1500q350 0 350 -350v-900h-1500q-350 0 -350 350zM450 400q0 -50 50 -50h900v100h-900q-50 0 -50 -50zM450 1450l275 450h450l275 -450h-450l-50 82l-50 -82h-450z" />
<glyph unicode="&#xe3;" horiz-adv-x="2350" d="M0 350v100q0 350 350 350h1050v50q0 50 -50 50h-1350v350h1500q350 0 350 -350v-900h-1500q-350 0 -350 350zM300 1350v450h950q350 0 350 -350v-100h-450v50q0 50 -50 50h-350v-100h-450zM450 400q0 -50 50 -50h900v100h-900q-50 0 -50 -50z" />
<glyph unicode="&#xe4;" horiz-adv-x="2350" d="M0 350v100q0 350 350 350h1050v50q0 50 -50 50h-1350v350h1500q350 0 350 -350v-900h-1500q-350 0 -350 350zM450 400q0 -50 50 -50h900v100h-900q-50 0 -50 -50zM450 1450v350h450v-350h-450zM1000 1450v350h450v-350h-450z" />
<glyph unicode="&#xe5;" horiz-adv-x="2350" d="M0 350v100q0 350 350 350h1050v50q0 50 -50 50h-1350v350h1500q350 0 350 -350v-900h-1500q-350 0 -350 350zM450 400q0 -50 50 -50h900v100h-900q-50 0 -50 -50zM650 1450v350h450v-350h-450z" />
<glyph unicode="&#xe6;" horiz-adv-x="2350" d="M0 350v100q0 350 350 350h400v50q0 50 -50 50h-700v350h1600q350 0 350 -350v-100q0 -350 -350 -350h-400v-50q0 -50 50 -50h700v-350h-1600q-350 0 -350 350zM450 400q0 -50 50 -50h250v100h-250q-50 0 -50 -50zM1200 800h250q50 0 50 50t-50 50h-200q-50 0 -50 -50v-50 z" />
<glyph unicode="&#xe7;" horiz-adv-x="2350" d="M0 350v550q0 350 350 350h1550v-350h-1400q-50 0 -50 -50v-450q0 -50 50 -50h1400v-350h-550v-100q0 -350 -350 -350h-450v350h300q50 0 50 50v50h-550q-350 0 -350 350z" />
<glyph unicode="&#xe8;" horiz-adv-x="2350" d="M0 350v550q0 350 350 350h1200q350 0 350 -350v-100q0 -350 -350 -350h-1100v-50q0 -50 50 -50h1400v-350h-1550q-350 0 -350 350zM300 1800h500l600 -450h-500zM450 800h950q50 0 50 50t-50 50h-900q-50 0 -50 -50v-50z" />
<glyph unicode="&#xe9;" horiz-adv-x="2350" d="M0 350v550q0 350 350 350h1200q350 0 350 -350v-100q0 -350 -350 -350h-1100v-50q0 -50 50 -50h1400v-350h-1550q-350 0 -350 350zM400 1400l600 450h500l-600 -450h-500zM450 800h950q50 0 50 50t-50 50h-900q-50 0 -50 -50v-50z" />
<glyph unicode="&#xea;" horiz-adv-x="2350" d="M0 350v550q0 350 350 350h1200q350 0 350 -350v-100q0 -350 -350 -350h-1100v-50q0 -50 50 -50h1400v-350h-1550q-350 0 -350 350zM450 800h950q50 0 50 50t-50 50h-900q-50 0 -50 -50v-50zM450 1450l275 450h450l275 -450h-450l-50 82l-50 -82h-450z" />
<glyph unicode="&#xeb;" horiz-adv-x="2350" d="M0 350v550q0 350 350 350h1200q350 0 350 -350v-100q0 -350 -350 -350h-1100v-50q0 -50 50 -50h1400v-350h-1550q-350 0 -350 350zM450 800h950q50 0 50 50t-50 50h-900q-50 0 -50 -50v-50zM450 1450v350h450v-350h-450zM1000 1450v350h450v-350h-450z" />
<glyph unicode="&#xec;" horiz-adv-x="900" d="M-350 1800h500l600 -450h-500zM0 0v1250h450v-1250h-450z" />
<glyph unicode="&#xed;" horiz-adv-x="900" d="M-300 1350l600 450h500l-600 -450h-500zM0 0v1250h450v-1250h-450z" />
<glyph unicode="&#xee;" horiz-adv-x="900" d="M-273 1350l275 450h450l275 -450h-450l-50 82l-50 -82h-450zM0 0v1250h450v-1250h-450z" />
<glyph unicode="&#xef;" horiz-adv-x="900" d="M-275 1450v350h450v-350h-450zM0 0v1250h450v-1250h-450zM275 1450v350h450v-350h-450z" />
<glyph unicode="&#xf0;" horiz-adv-x="2350" d="M0 350v550q0 350 350 350h650v200h450v-200h450v-350h-450v-900h-1100q-350 0 -350 350zM450 400q0 -50 50 -50h500v550h-500q-50 0 -50 -50v-450z" />
<glyph unicode="&#xf1;" horiz-adv-x="2350" d="M0 0v1250h1550q350 0 350 -350v-900h-450v850q0 50 -50 50h-950v-900h-450zM300 1350v450h950q350 0 350 -350v-100h-450v50q0 50 -50 50h-350v-100h-450z" />
<glyph unicode="&#xf2;" horiz-adv-x="2350" d="M0 350v550q0 350 350 350h1200q350 0 350 -350v-550q0 -350 -350 -350h-1200q-350 0 -350 350zM300 1800h500l600 -450h-500zM450 400q0 -50 50 -50h900q50 0 50 50v450q0 50 -50 50h-900q-50 0 -50 -50v-450z" />
<glyph unicode="&#xf3;" horiz-adv-x="2350" d="M0 350v550q0 350 350 350h1200q350 0 350 -350v-550q0 -350 -350 -350h-1200q-350 0 -350 350zM400 1400l600 450h500l-600 -450h-500zM450 400q0 -50 50 -50h900q50 0 50 50v450q0 50 -50 50h-900q-50 0 -50 -50v-450z" />
<glyph unicode="&#xf4;" horiz-adv-x="2350" d="M0 350v550q0 350 350 350h1200q350 0 350 -350v-550q0 -350 -350 -350h-1200q-350 0 -350 350zM450 400q0 -50 50 -50h900q50 0 50 50v450q0 50 -50 50h-900q-50 0 -50 -50v-450zM450 1450l275 450h450l275 -450h-450l-50 82l-50 -82h-450z" />
<glyph unicode="&#xf5;" horiz-adv-x="2350" d="M0 350v550q0 350 350 350h1200q350 0 350 -350v-550q0 -350 -350 -350h-1200q-350 0 -350 350zM300 1350v450h950q350 0 350 -350v-100h-450v50q0 50 -50 50h-350v-100h-450zM450 400q0 -50 50 -50h900q50 0 50 50v450q0 50 -50 50h-900q-50 0 -50 -50v-450z" />
<glyph unicode="&#xf6;" horiz-adv-x="2350" d="M0 350v550q0 350 350 350h1200q350 0 350 -350v-550q0 -350 -350 -350h-1200q-350 0 -350 350zM450 400q0 -50 50 -50h900q50 0 50 50v450q0 50 -50 50h-900q-50 0 -50 -50v-450zM450 1450v350h450v-350h-450zM1000 1450v350h450v-350h-450z" />
<glyph unicode="&#xf7;" horiz-adv-x="827" d="M0 647v140h839l1 -1v-139h-840zM295 378q0 14 16 30l82 84q15 14 28.5 14t31.5 -16l80 -86q12 -16 12 -30t-14 -30l-80 -88q-20 -20 -32.5 -20t-25.5 14l-88 101q-10 13 -10 27zM295 1071q0 14 16 30l82 84q15 14 28.5 14t31.5 -16l80 -86q12 -16 12 -30t-14 -30l-80 -88 q-20 -20 -32.5 -20t-25.5 14l-88 101q-10 13 -10 27z" />
<glyph unicode="&#xf8;" horiz-adv-x="2350" d="M0 350v550q0 350 350 350h1200q350 0 350 -350v-550q0 -350 -350 -350h-1200q-350 0 -350 350zM450 531l713 369h-663q-50 0 -50 -50v-319zM737 350h663q50 0 50 50v319z" />
<glyph unicode="&#xf9;" horiz-adv-x="2350" d="M0 350v900h450v-850q0 -50 50 -50h950v900h450v-1250h-1550q-350 0 -350 350zM500 2000h500l600 -450h-500z" />
<glyph unicode="&#xfa;" horiz-adv-x="2350" d="M0 350v900h450v-850q0 -50 50 -50h950v900h450v-1250h-1550q-350 0 -350 350zM400 1400l600 450h500l-600 -450h-500z" />
<glyph unicode="&#xfb;" horiz-adv-x="2350" d="M0 350v900h450v-850q0 -50 50 -50h950v900h450v-1250h-1550q-350 0 -350 350zM450 1450l275 450h450l275 -450h-450l-50 82l-50 -82h-450z" />
<glyph unicode="&#xfc;" horiz-adv-x="2350" d="M0 350v900h450v-850q0 -50 50 -50h950v900h450v-1250h-1550q-350 0 -350 350zM450 1450v350h450v-350h-450zM1000 1450v350h450v-350h-450z" />
<glyph unicode="&#xfd;" horiz-adv-x="2350" d="M0 -100h1400q50 0 50 50v50h-1100q-350 0 -350 350v900h450v-850q0 -50 50 -50h950v900h450v-1350q0 -350 -350 -350h-1550v350zM400 1400l600 450h500l-600 -450h-500z" />
<glyph unicode="&#xfe;" horiz-adv-x="2350" d="M0 -450v1900h450v-200h1100q350 0 350 -350v-550q0 -350 -350 -350h-1100v-450h-450zM450 350h950q50 0 50 50v450q0 50 -50 50h-950v-550z" />
<glyph unicode="&#xff;" horiz-adv-x="2350" d="M0 -100h1400q50 0 50 50v50h-1100q-350 0 -350 350v900h450v-850q0 -50 50 -50h950v900h450v-1350q0 -350 -350 -350h-1550v350zM450 1450v350h450v-350h-450zM1000 1450v350h450v-350h-450z" />
<glyph unicode="&#x2c6;" horiz-adv-x="1450" d="M0 1550l275 450h450l275 -450h-450l-50 82l-50 -82h-450z" />
<glyph unicode="&#x2dc;" horiz-adv-x="1800" d="M0 1550v450h1000q350 0 350 -350v-100h-450v50q0 50 -50 50h-400v-100h-450z" />
<glyph unicode="&#x2000;" horiz-adv-x="1000" />
<glyph unicode="&#x2001;" horiz-adv-x="2000" />
<glyph unicode="&#x2002;" horiz-adv-x="1000" />
<glyph unicode="&#x2003;" horiz-adv-x="2000" />
<glyph unicode="&#x2004;" horiz-adv-x="666" />
<glyph unicode="&#x2005;" horiz-adv-x="500" />
<glyph unicode="&#x2006;" horiz-adv-x="333" />
<glyph unicode="&#x2007;" horiz-adv-x="333" />
<glyph unicode="&#x2008;" horiz-adv-x="250" />
<glyph unicode="&#x2009;" horiz-adv-x="400" />
<glyph unicode="&#x200a;" horiz-adv-x="111" />
<glyph unicode="&#x2010;" horiz-adv-x="2000" d="M0 550v350h1550v-350h-1550z" />
<glyph unicode="&#x2011;" horiz-adv-x="2000" d="M0 550v350h1550v-350h-1550z" />
<glyph unicode="&#x2012;" horiz-adv-x="2000" d="M0 550v350h1550v-350h-1550z" />
<glyph unicode="&#x2013;" horiz-adv-x="1700" d="M0 550v350h1250v-350h-1250z" />
<glyph unicode="&#x2014;" horiz-adv-x="2300" d="M0 550v350h1900v-350h-1900z" />
<glyph unicode="&#x2018;" horiz-adv-x="900" d="M0 900v550h450v-550h-450z" />
<glyph unicode="&#x2019;" horiz-adv-x="900" d="M0 900v550h450v-550h-450z" />
<glyph unicode="&#x201a;" horiz-adv-x="900" d="M0 -200v550h450v-550h-450z" />
<glyph unicode="&#x201c;" horiz-adv-x="1450" d="M0 900v550h450v-550h-450zM550 900v550h450v-550h-450z" />
<glyph unicode="&#x201d;" horiz-adv-x="1450" d="M0 900v550h450v-550h-450zM550 900v550h450v-550h-450z" />
<glyph unicode="&#x201e;" horiz-adv-x="1450" d="M0 -200v550h450v-550h-450zM550 -200v550h450v-550h-450z" />
<glyph unicode="&#x2022;" horiz-adv-x="1650" d="M0 400v650q0 50 50 50h1100q50 0 50 -50v-650q0 -50 -50 -50h-1100q-50 0 -50 50z" />
<glyph unicode="&#x2026;" horiz-adv-x="2000" d="M0 0v350h450v-350h-450zM550 0v350h450v-350h-450zM1100 0v350h450v-350h-450z" />
<glyph unicode="&#x202f;" horiz-adv-x="400" />
<glyph unicode="&#x2039;" horiz-adv-x="1825" d="M0 725l825 725h550l-825 -725l825 -725h-550z" />
<glyph unicode="&#x203a;" horiz-adv-x="1825" d="M0 0l825 725l-825 725h550l825 -725l-825 -725h-550z" />
<glyph unicode="&#x205f;" horiz-adv-x="500" />
<glyph unicode="&#x20ac;" d="M0 550v350h450v200q0 350 350 350h1300v-350h-1150q-50 0 -50 -50v-150h650v-350h-650v-150q0 -50 50 -50h1150v-350h-1300q-350 0 -350 350v200h-450z" />
<glyph unicode="&#x2122;" horiz-adv-x="1397" />
<glyph unicode="&#xe000;" horiz-adv-x="1250" d="M0 0v1250h1250v-1250h-1250z" />
</font>
</defs>
</svg>
